<?xml version="1.0" encoding="utf-8"?>
<!-- Generator: Adobe Illustrator 16.0.0, SVG Export Plug-In . SVG Version: 6.00 Build 0)  -->
<!DOCTYPE svg PUBLIC "-//W3C//DTD SVG 1.1//EN" "http://www.w3.org/Graphics/SVG/1.1/DTD/svg11.dtd">
<svg version="1.1" id="Capa_1" xmlns="http://www.w3.org/2000/svg" xmlns:xlink="http://www.w3.org/1999/xlink" x="0px" y="0px"
	 width="600px" height="600px" viewBox="0 0 600 600" enable-background="new 0 0 600 600" xml:space="preserve">
<g id="Nuevo_símbolo">
	<path fill="#F2F2F2" d="M296.916,301.205V21.344C174.044,24.37,70.365,104.732,32.7,215.596L296.916,301.205z"/>
	<path fill="#F2F2F2" d="M308.905,301.77l266.547-86.363C537.487,103.921,432.75,23.347,308.905,21.313V301.77z"/>
	<path fill="#F2F2F2" d="M294.623,313.618L29.08,227.091c-7.506,25.611-11.551,52.702-11.551,80.742
		c0,93.781,45.051,177.038,114.687,229.317L294.623,313.618z"/>
	<path fill="#F2F2F2" d="M304.437,320.507l-162.479,223.63c46.114,31.704,101.96,50.276,162.151,50.276
		c60.435,0,116.487-18.723,162.711-50.664L304.437,320.507z"/>
	<path fill="#F2F2F2" d="M314.263,313.048l162.316,223.665c69.307-52.309,114.112-135.357,114.112-228.879
		c0-28.117-4.067-55.278-11.614-80.951L314.263,313.048z"/>
	<g>
		<g>
			<path fill="#02726C" d="M159.073,203.694c-0.913-1.067-1.432-2.54-1.56-4.417l1.833-0.547c0.164,1.568,0.515,2.771,1.053,3.61
				c0.537,0.838,1.426,1.258,2.667,1.258c2.079,0,3.118-1.066,3.118-3.2c0-0.912-0.214-1.709-0.643-2.394
				c-0.429-0.683-1.117-1.48-2.065-2.393l-3.911-3.747c-0.694-0.674-1.204-1.373-1.532-2.094c-0.328-0.719-0.493-1.508-0.493-2.365
				c0-1.513,0.456-2.685,1.368-3.515c0.912-0.829,2.151-1.245,3.72-1.245c1.622,0,2.862,0.439,3.719,1.313
				c0.855,0.876,1.358,2.307,1.503,4.294l-1.776,0.465c-0.109-1.475-0.415-2.584-0.917-3.323c-0.501-0.737-1.318-1.106-2.447-1.106
				c-1.003,0-1.801,0.243-2.393,0.724c-0.593,0.483-0.89,1.219-0.89,2.201c0,0.602,0.118,1.148,0.355,1.642
				c0.238,0.493,0.638,1.022,1.204,1.586l3.911,3.692c1.003,0.966,1.792,1.941,2.367,2.925c0.574,0.985,0.86,2.051,0.86,3.201
				c0,1.605-0.465,2.844-1.395,3.72c-0.929,0.875-2.16,1.312-3.692,1.312C161.305,205.293,159.982,204.76,159.073,203.694z"/>
			<path fill="#02726C" d="M170.996,204.392c-0.419-0.583-0.629-1.412-0.629-2.489v-12.689h2.024v12.252
				c0,0.803,0.124,1.373,0.37,1.709c0.246,0.337,0.625,0.507,1.134,0.507c0.456,0,0.924-0.142,1.408-0.425
				c0.485-0.282,0.944-0.66,1.382-1.134v-12.909h1.996v15.808h-1.996v-1.751c-0.529,0.621-1.122,1.107-1.778,1.463
				c-0.656,0.356-1.349,0.534-2.08,0.534C172.025,205.267,171.414,204.976,170.996,204.392z"/>
			<path fill="#02726C" d="M181.77,189.212h1.998v1.314c0.82-1.039,1.833-1.56,3.036-1.56c1.386,0,2.328,0.571,2.829,1.708
				c0.502,1.142,0.752,2.668,0.752,4.583v3.337c0,2.17-0.282,3.825-0.848,4.963c-0.565,1.141-1.55,1.71-2.954,1.71
				c-0.984,0-1.923-0.501-2.817-1.505v6.456h-1.998v-21.005H181.77z M187.965,202.504c0.283-0.783,0.424-2.07,0.424-3.855v-3.392
				c0-1.696-0.141-2.908-0.424-3.639c-0.283-0.727-0.862-1.094-1.736-1.094c-0.82,0-1.642,0.41-2.461,1.23v10.775
				c0.729,0.766,1.568,1.149,2.517,1.149C187.121,203.681,187.682,203.289,187.965,202.504z"/>
			<path fill="#02726C" d="M194.679,204.663c-0.62-0.398-1.075-1.049-1.368-1.94c-0.291-0.895-0.437-2.106-0.437-3.639v-3.993
				c0-1.55,0.151-2.768,0.452-3.65c0.3-0.885,0.765-1.52,1.395-1.901c0.629-0.383,1.445-0.575,2.448-0.575
				c1.095,0,1.937,0.233,2.529,0.698c0.592,0.466,1.002,1.162,1.23,2.094c0.227,0.93,0.343,2.18,0.343,3.747l-0.028,1.422h-6.372
				v2.351c0,1.113,0.063,1.987,0.192,2.625c0.127,0.639,0.356,1.107,0.684,1.408c0.328,0.3,0.793,0.451,1.396,0.451
				c0.693,0,1.225-0.219,1.599-0.655c0.374-0.437,0.56-1.229,0.56-2.378v-1.096h1.942v0.876c0,1.53-0.319,2.707-0.957,3.527
				c-0.639,0.82-1.687,1.231-3.146,1.231C196.12,205.267,195.297,205.066,194.679,204.663z M199.3,195.777v-1.314
				c0-0.948-0.05-1.695-0.15-2.242c-0.101-0.548-0.305-0.974-0.616-1.286c-0.311-0.311-0.774-0.465-1.395-0.465
				c-0.565,0-1.013,0.123-1.34,0.37c-0.329,0.246-0.564,0.674-0.711,1.285c-0.146,0.61-0.219,1.472-0.219,2.583v1.066h4.431V195.777
				z"/>
			<path fill="#02726C" d="M204.113,189.212h2.025v2.16c0.474-0.782,1.035-1.366,1.681-1.75c0.647-0.382,1.299-0.574,1.956-0.574
				c0.164,0,0.282,0.009,0.355,0.025v2.135c-0.328-0.109-0.656-0.164-0.985-0.164c-1.257,0-2.262,0.612-3.008,1.833v12.144h-2.025
				L204.113,189.212L204.113,189.212z"/>
			<path fill="#02726C" d="M211.06,189.212h2.023l2.571,13.512l2.544-13.512h1.942l-3.309,15.81h-2.353L211.06,189.212z"/>
			<path fill="#02726C" d="M222.383,184.317h1.996v2.708h-1.996V184.317z M222.383,189.212h1.996v15.81h-1.996V189.212z"/>
			<path fill="#02726C" d="M228.358,204.063c-0.757-0.802-1.19-1.896-1.299-3.281l1.668-0.52c0.109,1.202,0.387,2.087,0.833,2.65
				c0.447,0.567,1.072,0.849,1.874,0.849c0.692,0,1.234-0.2,1.626-0.602c0.393-0.399,0.587-0.947,0.587-1.639
				c0-1.021-0.639-2.079-1.913-3.173l-2.162-1.859c-0.729-0.602-1.272-1.204-1.626-1.806c-0.355-0.601-0.534-1.295-0.534-2.078
				c0-1.148,0.338-2.041,1.013-2.68c0.674-0.637,1.595-0.957,2.762-0.957c1.167,0,2.066,0.375,2.695,1.123
				c0.628,0.748,0.979,1.759,1.053,3.037l-1.422,0.463c-0.109-2.079-0.857-3.119-2.243-3.119c-0.62,0-1.116,0.169-1.49,0.507
				c-0.374,0.337-0.551,0.807-0.534,1.407c0,0.493,0.091,0.925,0.273,1.3c0.182,0.374,0.519,0.77,1.012,1.189l2.243,1.997
				c0.838,0.746,1.486,1.453,1.941,2.118c0.456,0.666,0.685,1.491,0.685,2.474c0,1.204-0.366,2.138-1.095,2.804
				c-0.729,0.667-1.713,0.999-2.953,0.999C230.112,205.267,229.115,204.866,228.358,204.063z"/>
			<path fill="#02726C" d="M237.888,184.317h1.997v2.708h-1.997V184.317z M237.888,189.212h1.997v15.81h-1.997V189.212z"/>
			<path fill="#02726C" d="M243.878,203.803c-0.62-0.974-0.93-2.474-0.93-4.5v-4.374c0-2.024,0.311-3.524,0.93-4.5
				c0.619-0.975,1.714-1.463,3.281-1.463s2.661,0.488,3.282,1.463c0.62,0.975,0.93,2.474,0.93,4.5v4.374
				c0,2.025-0.31,3.525-0.93,4.5c-0.621,0.976-1.714,1.464-3.282,1.464S244.497,204.779,243.878,203.803z M248.624,203.242
				c0.319-0.345,0.524-0.819,0.615-1.421c0.091-0.601,0.136-1.404,0.136-2.408v-4.594c0-1.002-0.045-1.805-0.136-2.406
				c-0.093-0.602-0.296-1.075-0.615-1.421c-0.319-0.347-0.807-0.521-1.463-0.521c-0.657,0-1.145,0.174-1.464,0.521
				c-0.319,0.346-0.525,0.814-0.615,1.407c-0.092,0.592-0.136,1.399-0.136,2.42v4.595c0,1.022,0.046,1.829,0.136,2.422
				c0.091,0.594,0.296,1.062,0.615,1.408c0.319,0.346,0.807,0.52,1.464,0.52C247.815,203.762,248.303,203.589,248.624,203.242z
				 M248.391,182.54h1.996l-2.68,5.361h-1.039L248.391,182.54z"/>
			<path fill="#02726C" d="M254.133,189.212h1.997v1.643c0.529-0.584,1.117-1.044,1.763-1.382c0.647-0.336,1.327-0.506,2.037-0.506
				c0.784,0,1.387,0.292,1.807,0.875c0.418,0.583,0.628,1.412,0.628,2.488v12.691h-1.998v-12.254c0-0.802-0.123-1.375-0.368-1.723
				c-0.247-0.346-0.626-0.52-1.135-0.52c-0.437,0-0.895,0.132-1.368,0.396c-0.473,0.267-0.929,0.626-1.366,1.082v13.02h-1.997
				V189.212z"/>
			<path fill="#02726C" d="M155.981,231.151c-0.62-0.975-0.93-2.475-0.93-4.498v-4.376c0-2.023,0.31-3.523,0.93-4.5
				c0.62-0.976,1.713-1.462,3.281-1.462c1.568,0,2.662,0.487,3.283,1.462c0.62,0.977,0.929,2.475,0.929,4.5v4.376
				c0,2.023-0.309,3.523-0.929,4.498c-0.621,0.975-1.715,1.463-3.283,1.463C157.694,232.615,156.601,232.126,155.981,231.151z
				 M160.726,230.592c0.319-0.347,0.524-0.822,0.615-1.424c0.091-0.602,0.136-1.404,0.136-2.406v-4.596
				c0-1.001-0.047-1.805-0.136-2.406c-0.091-0.602-0.296-1.076-0.615-1.423c-0.32-0.346-0.807-0.519-1.464-0.519
				s-1.146,0.173-1.462,0.519c-0.319,0.347-0.525,0.816-0.615,1.409c-0.093,0.592-0.137,1.399-0.137,2.42v4.596
				c0,1.021,0.045,1.828,0.137,2.42s0.296,1.063,0.615,1.41c0.318,0.344,0.805,0.52,1.462,0.52S160.406,230.937,160.726,230.592z"/>
			<path fill="#02726C" d="M172.581,210.217h2.078l4.376,19.226l4.456-19.226h2.079l0.547,22.152h-1.722l-0.438-17.64l-4.239,17.64
				h-1.34l-4.184-17.611l-0.438,17.611h-1.723L172.581,210.217z"/>
			<path fill="#02726C" d="M190.029,231.151c-0.621-0.975-0.93-2.475-0.93-4.498v-4.376c0-2.023,0.311-3.523,0.93-4.5
				c0.619-0.976,1.714-1.462,3.281-1.462s2.662,0.487,3.282,1.462c0.62,0.977,0.929,2.475,0.929,4.5v4.376
				c0,2.023-0.311,3.523-0.929,4.498c-0.621,0.975-1.714,1.463-3.282,1.463S190.648,232.126,190.029,231.151z M194.773,230.592
				c0.319-0.347,0.524-0.822,0.615-1.424c0.091-0.602,0.137-1.404,0.137-2.406v-4.596c0-1.001-0.046-1.805-0.137-2.406
				c-0.092-0.602-0.296-1.076-0.615-1.423c-0.319-0.346-0.807-0.519-1.463-0.519c-0.657,0-1.145,0.173-1.463,0.519
				c-0.32,0.347-0.525,0.816-0.617,1.409c-0.09,0.592-0.136,1.399-0.136,2.42v4.596c0,1.021,0.046,1.828,0.136,2.42
				c0.092,0.592,0.296,1.063,0.617,1.41c0.319,0.344,0.807,0.52,1.463,0.52C193.967,231.111,194.455,230.937,194.773,230.592z"/>
			<path fill="#02726C" d="M200.285,216.562h1.996v1.642c0.529-0.583,1.116-1.043,1.765-1.382c0.647-0.337,1.326-0.507,2.037-0.507
				c0.784,0,1.386,0.292,1.805,0.875c0.42,0.584,0.628,1.413,0.628,2.488v12.692h-1.998v-12.252c0-0.801-0.123-1.376-0.369-1.724
				c-0.246-0.347-0.625-0.52-1.135-0.52c-0.437,0-0.895,0.132-1.368,0.397c-0.475,0.265-0.93,0.624-1.367,1.081v13.019h-1.997
				v-15.807H200.285z"/>
			<path fill="#02726C" d="M211.688,211.666h1.997v2.708h-1.997V211.666z M211.688,216.562h1.997v15.807h-1.997V216.562z"/>
			<path fill="#02726C" d="M218.553,231.671c-0.4-0.593-0.601-1.453-0.601-2.584v-11.213h-1.942v-1.313h1.942v-4.895h1.996v4.895
				h2.625v1.313h-2.625v11.021c0,0.802,0.091,1.354,0.274,1.654c0.182,0.301,0.556,0.452,1.122,0.452
				c0.347,0,0.729-0.047,1.149-0.137v1.532c-0.566,0.109-1.131,0.164-1.695,0.164C219.701,232.561,218.954,232.264,218.553,231.671z
				"/>
			<path fill="#02726C" d="M225.336,231.151c-0.62-0.975-0.931-2.475-0.931-4.498v-4.376c0-2.023,0.311-3.523,0.931-4.5
				c0.62-0.976,1.713-1.462,3.283-1.462c1.567,0,2.662,0.487,3.281,1.462c0.62,0.977,0.93,2.475,0.93,4.5v4.376
				c0,2.023-0.311,3.523-0.93,4.498c-0.62,0.975-1.714,1.463-3.281,1.463C227.049,232.615,225.956,232.126,225.336,231.151z
				 M230.082,230.592c0.318-0.347,0.524-0.822,0.615-1.424c0.091-0.602,0.137-1.404,0.137-2.406v-4.596
				c0-1.001-0.045-1.805-0.137-2.406c-0.091-0.602-0.296-1.076-0.615-1.423c-0.32-0.346-0.808-0.519-1.463-0.519
				c-0.657,0-1.145,0.173-1.464,0.519c-0.318,0.347-0.525,0.816-0.615,1.409c-0.091,0.592-0.137,1.399-0.137,2.42v4.596
				c0,1.021,0.045,1.828,0.137,2.42c0.091,0.592,0.296,1.063,0.615,1.41c0.319,0.344,0.806,0.52,1.464,0.52
				C229.274,231.111,229.761,230.937,230.082,230.592z"/>
			<path fill="#02726C" d="M235.728,216.562h2.024v2.161c0.474-0.784,1.034-1.367,1.681-1.751c0.647-0.383,1.3-0.575,1.955-0.575
				c0.165,0,0.282,0.01,0.355,0.027v2.134c-0.328-0.11-0.656-0.164-0.985-0.164c-1.257,0-2.261,0.613-3.007,1.833v12.143h-2.024
				L235.728,216.562L235.728,216.562z"/>
			<path fill="#02726C" d="M245.136,232.014c-0.62-0.4-1.076-1.049-1.368-1.942c-0.292-0.893-0.438-2.105-0.438-3.638v-3.994
				c0-1.549,0.15-2.765,0.451-3.65c0.301-0.884,0.767-1.518,1.395-1.9c0.629-0.383,1.446-0.574,2.448-0.574
				c1.094,0,1.936,0.232,2.529,0.698c0.593,0.466,1.002,1.163,1.231,2.094c0.228,0.928,0.341,2.179,0.341,3.747l-0.027,1.421h-6.372
				v2.351c0,1.114,0.064,1.989,0.192,2.627c0.127,0.638,0.355,1.106,0.683,1.407c0.328,0.301,0.793,0.452,1.396,0.452
				c0.693,0,1.225-0.219,1.599-0.657c0.374-0.438,0.56-1.23,0.56-2.379v-1.095h1.942v0.876c0,1.53-0.319,2.707-0.957,3.526
				c-0.639,0.822-1.687,1.23-3.146,1.23C246.576,232.615,245.754,232.415,245.136,232.014z M249.757,223.125v-1.313
				c0-0.948-0.05-1.696-0.15-2.243c-0.101-0.548-0.306-0.976-0.616-1.286c-0.311-0.309-0.774-0.465-1.395-0.465
				c-0.565,0-1.012,0.122-1.34,0.368c-0.329,0.246-0.566,0.676-0.711,1.287c-0.146,0.61-0.22,1.472-0.22,2.584v1.067
				L249.757,223.125L249.757,223.125z"/>
			<path fill="#02726C" d="M255.063,231.151c-0.62-0.975-0.93-2.475-0.93-4.498v-4.376c0-2.023,0.31-3.523,0.93-4.5
				c0.62-0.976,1.714-1.462,3.282-1.462s2.663,0.487,3.283,1.462c0.617,0.977,0.928,2.475,0.928,4.5v4.376
				c0,2.023-0.311,3.523-0.928,4.498c-0.621,0.975-1.714,1.463-3.283,1.463S255.683,232.126,255.063,231.151z M259.809,230.592
				c0.318-0.347,0.523-0.822,0.614-1.424c0.09-0.602,0.136-1.404,0.136-2.406v-4.596c0-1.001-0.046-1.805-0.136-2.406
				c-0.092-0.602-0.297-1.076-0.614-1.423c-0.32-0.346-0.808-0.519-1.464-0.519c-0.657,0-1.145,0.173-1.463,0.519
				c-0.319,0.347-0.525,0.816-0.615,1.409c-0.093,0.592-0.137,1.399-0.137,2.42v4.596c0,1.021,0.044,1.828,0.137,2.42
				c0.091,0.592,0.297,1.063,0.615,1.41c0.318,0.344,0.805,0.52,1.463,0.52C259.001,231.111,259.489,230.937,259.809,230.592z"/>
		</g>
		<g>
			<g>
				<g>
					<path fill="#02726C" d="M197.621,147.337c-3.246,0-5.883,3.302-5.883,7.357c0,4.055,2.637,7.356,5.883,7.356
						c3.251,0,5.889-3.302,5.889-7.356C203.51,150.639,200.872,147.337,197.621,147.337z M197.621,159.09
						c-1.595,0-2.94-2.027-2.94-4.414c0-2.389,1.345-4.415,2.94-4.415c1.599,0,2.946,2.026,2.946,4.415
						C200.567,157.081,199.22,159.09,197.621,159.09z"/>
				</g>
			</g>
			<g>
				<g>
					<polygon fill="#02726C" points="184.377,153.222 187.323,153.222 187.323,156.166 184.377,156.166 					"/>
				</g>
			</g>
			<g>
				<g>
					<polygon fill="#02726C" points="207.905,153.222 210.848,153.222 210.848,156.166 207.905,156.166 					"/>
				</g>
			</g>
			<g>
				<g>
					<path fill="#02726C" d="M249.09,120.867V76.758h-61.769v64.691h-7.338h-7.359v7.357v11.755v7.358h7.359h35.278h7.359v-7.358
						v-4.414h4.413v11.771h36.751v-47.053H249.09V120.867z M175.568,144.394h4.197c-0.537,2.063-2.152,3.66-4.197,4.198V144.394z
						 M175.568,164.977v-4.199c2.063,0.538,3.661,2.154,4.197,4.199H175.568z M219.676,164.977h-4.2
						c0.54-2.063,2.154-3.661,4.2-4.199V164.977z M219.676,157.743c-3.696,0.631-6.603,3.537-7.231,7.233h-29.645
						c-0.629-3.696-3.536-6.602-7.232-7.233v-6.119c3.696-0.628,6.603-3.536,7.232-7.231h29.645
						c0.628,3.696,3.535,6.603,7.231,7.231V157.743L219.676,157.743z M219.676,148.592c-2.063-0.539-3.66-2.153-4.2-4.197h4.2
						V148.592z M227.035,153.222h-4.414v-4.415v-7.357h-7.359h-24.998V79.701h55.882v41.166h-19.111V153.222z M260.844,164.977
						h-30.886v-41.168h30.886V164.977z"/>
				</g>
			</g>
			<g>
				<g>
					<path fill="#02726C" d="M232.904,126.752v11.755h24.998v-11.755H232.904L232.904,126.752z M254.958,135.566h-19.112v-5.869
						h19.112V135.566z"/>
				</g>
			</g>
			<g>
				<g>
					<polygon fill="#02726C" points="232.904,141.449 235.845,141.449 235.845,144.394 232.904,144.394 					"/>
				</g>
			</g>
			<g>
				<g>
					<polygon fill="#02726C" points="240.261,141.449 243.204,141.449 243.204,144.394 240.261,144.394 					"/>
				</g>
			</g>
			<g>
				<g>
					<polygon fill="#02726C" points="247.618,141.449 250.561,141.449 250.561,144.394 247.618,144.394 					"/>
				</g>
			</g>
			<g>
				<g>
					<polygon fill="#02726C" points="254.958,141.449 257.9,141.449 257.9,144.394 254.958,144.394 					"/>
				</g>
			</g>
			<g>
				<g>
					<polygon fill="#02726C" points="232.904,147.337 235.845,147.337 235.845,150.279 232.904,150.279 					"/>
				</g>
			</g>
			<g>
				<g>
					<polygon fill="#02726C" points="240.261,147.337 243.204,147.337 243.204,150.279 240.261,150.279 					"/>
				</g>
			</g>
			<g>
				<g>
					<polygon fill="#02726C" points="247.618,147.337 250.561,147.337 250.561,150.279 247.618,150.279 					"/>
				</g>
			</g>
			<g>
				<g>
					<polygon fill="#02726C" points="254.958,147.337 257.9,147.337 257.9,150.279 254.958,150.279 					"/>
				</g>
			</g>
			<g>
				<g>
					<polygon fill="#02726C" points="232.904,153.222 235.845,153.222 235.845,156.166 232.904,156.166 					"/>
				</g>
			</g>
			<g>
				<g>
					<polygon fill="#02726C" points="240.261,153.222 243.204,153.222 243.204,156.166 240.261,156.166 					"/>
				</g>
			</g>
			<g>
				<g>
					<polygon fill="#02726C" points="247.618,153.222 250.561,153.222 250.561,156.166 247.618,156.166 					"/>
				</g>
			</g>
			<g>
				<g>
					<polygon fill="#02726C" points="254.958,153.222 257.9,153.222 257.9,156.166 254.958,156.166 					"/>
				</g>
			</g>
			<g>
				<g>
					<polygon fill="#02726C" points="232.904,159.09 235.845,159.09 235.845,162.034 232.904,162.034 					"/>
				</g>
			</g>
			<g>
				<g>
					<polygon fill="#02726C" points="240.261,159.09 243.204,159.09 243.204,162.034 240.261,162.034 					"/>
				</g>
			</g>
			<g>
				<g>
					<polygon fill="#02726C" points="247.618,159.09 250.561,159.09 250.561,162.034 247.618,162.034 					"/>
				</g>
			</g>
			<g>
				<g>
					<polygon fill="#02726C" points="254.958,159.09 257.9,159.09 257.9,162.034 254.958,162.034 					"/>
				</g>
			</g>
			<g>
				<g>
					<path fill="#02726C" d="M194.681,84.115v23.527h20.582V84.115H194.681z M212.321,104.699h-14.7v-17.64h14.7V104.699
						L212.321,104.699z"/>
				</g>
			</g>
			<g>
				<g>
					<polygon fill="#02726C" points="219.676,94.397 241.732,94.397 241.732,97.34 219.676,97.34 					"/>
				</g>
			</g>
			<g>
				<g>
					<polygon fill="#02726C" points="219.676,104.699 241.732,104.699 241.732,107.642 219.676,107.642 					"/>
				</g>
			</g>
			<g>
				<g>
					<polygon fill="#02726C" points="194.681,114.981 241.732,114.981 241.732,117.924 194.681,117.924 					"/>
				</g>
			</g>
			<g>
				<g>
					<polygon fill="#02726C" points="194.681,126.752 222.622,126.752 222.622,129.697 194.681,129.697 					"/>
				</g>
			</g>
		</g>
	</g>
	<g>
		<g>
			<path fill="#02726C" d="M346.326,183.052h2.184l4.697,22.118h-2.049l-1.093-5.926h-5.269l-1.121,5.926h-2.021L346.326,183.052z
				 M349.794,197.743l-2.349-11.933l-2.349,11.933H349.794z"/>
			<path fill="#02726C" d="M355.473,189.387h1.859v1.611c0.507-0.618,1.079-1.086,1.719-1.405c0.638-0.319,1.302-0.479,1.993-0.479
				c1.311,0,2.148,0.683,2.512,2.048c0.528-0.673,1.125-1.183,1.789-1.528c0.665-0.345,1.36-0.52,2.089-0.52
				c0.782,0,1.424,0.282,1.925,0.848c0.501,0.564,0.751,1.483,0.751,2.757v12.451h-1.856v-12.398c0-0.856-0.136-1.451-0.412-1.788
				c-0.271-0.336-0.665-0.503-1.173-0.503c-0.475,0-0.975,0.145-1.501,0.437c-0.529,0.292-1.021,0.692-1.476,1.2
				c0.035,0.255,0.055,0.456,0.055,0.601v12.453h-1.884v-12.398c0-0.874-0.136-1.473-0.41-1.802c-0.273-0.327-0.664-0.49-1.175-0.49
				c-0.474,0-0.965,0.145-1.474,0.437c-0.51,0.292-1.001,0.683-1.475,1.174v13.08h-1.856V189.387L355.473,189.387z"/>
			<path fill="#02726C" d="M375.077,203.913v1.257h-1.992v-22.118h1.992v7.646c0.346-0.456,0.774-0.829,1.285-1.122
				c0.509-0.291,1.08-0.437,1.719-0.437c1.384,0,2.332,0.572,2.841,1.72s0.764,2.668,0.764,4.56v3.331
				c0,2.168-0.282,3.819-0.847,4.956c-0.564,1.138-1.545,1.706-2.948,1.706C376.871,205.415,375.933,204.915,375.077,203.913z
				 M379.242,202.656c0.281-0.782,0.424-2.066,0.424-3.85v-3.386c0-1.693-0.142-2.904-0.424-3.632
				c-0.281-0.727-0.86-1.091-1.732-1.091c-0.802,0-1.614,0.409-2.431,1.227v10.76c0.691,0.765,1.511,1.147,2.457,1.147
				C378.39,203.832,378.959,203.439,379.242,202.656z"/>
			<path fill="#02726C" d="M384.637,184.499h1.991v2.703h-1.991V184.499z M384.637,189.387h1.991v15.783h-1.991V189.387z"/>
			<path fill="#02726C" d="M391.488,204.813c-0.619-0.398-1.074-1.045-1.366-1.937c-0.289-0.894-0.437-2.103-0.437-3.633v-3.987
				c0-1.548,0.152-2.762,0.452-3.645s0.764-1.516,1.39-1.899c0.631-0.381,1.442-0.573,2.447-0.573c1.092,0,1.932,0.232,2.522,0.697
				c0.593,0.463,1,1.16,1.229,2.09c0.228,0.927,0.342,2.175,0.342,3.739l-0.028,1.421h-6.361v2.348c0,1.111,0.063,1.984,0.19,2.622
				c0.128,0.638,0.354,1.106,0.683,1.408c0.328,0.3,0.789,0.45,1.394,0.45c0.69,0,1.224-0.219,1.597-0.656s0.559-1.228,0.559-2.375
				v-1.093h1.939v0.875c0,1.528-0.32,2.703-0.955,3.523c-0.639,0.818-1.686,1.228-3.14,1.228
				C392.927,205.415,392.106,205.212,391.488,204.813z M396.102,195.939v-1.31c0-0.947-0.049-1.693-0.149-2.239
				c-0.099-0.546-0.305-0.974-0.616-1.284c-0.311-0.309-0.772-0.464-1.391-0.464c-0.564,0-1.012,0.122-1.339,0.369
				c-0.326,0.246-0.563,0.674-0.71,1.284c-0.146,0.61-0.218,1.469-0.218,2.581v1.064L396.102,195.939L396.102,195.939z"/>
			<path fill="#02726C" d="M400.773,189.387h1.992v1.638c0.527-0.582,1.115-1.042,1.761-1.379c0.646-0.336,1.324-0.504,2.033-0.504
				c0.784,0,1.385,0.292,1.804,0.875c0.418,0.583,0.628,1.41,0.628,2.484v12.67h-1.994v-12.233c0-0.801-0.124-1.375-0.37-1.722
				c-0.243-0.346-0.624-0.518-1.132-0.518c-0.437,0-0.892,0.132-1.366,0.395c-0.474,0.265-0.927,0.624-1.364,1.078v13h-1.994
				v-15.783H400.773z"/>
			<path fill="#02726C" d="M413.442,204.474c-0.401-0.591-0.602-1.451-0.602-2.581v-11.194h-1.938v-1.311h1.938V184.5h1.992v4.888
				h2.622v1.31h-2.622v11.003c0,0.801,0.093,1.352,0.274,1.652c0.18,0.3,0.556,0.45,1.12,0.45c0.347,0,0.728-0.046,1.146-0.136
				v1.528c-0.563,0.109-1.127,0.163-1.691,0.163C414.588,205.36,413.841,205.064,413.442,204.474z"/>
			<path fill="#02726C" d="M421.087,204.813c-0.618-0.398-1.075-1.045-1.368-1.937c-0.288-0.894-0.435-2.103-0.435-3.633v-3.987
				c0-1.548,0.151-2.762,0.45-3.645c0.3-0.883,0.765-1.516,1.392-1.899c0.63-0.381,1.442-0.573,2.447-0.573
				c1.091,0,1.932,0.232,2.521,0.697c0.593,0.463,1.002,1.16,1.231,2.09c0.226,0.927,0.34,2.175,0.34,3.739l-0.026,1.421h-6.363
				v2.348c0,1.111,0.064,1.984,0.191,2.622c0.127,0.638,0.354,1.106,0.682,1.408c0.328,0.3,0.79,0.45,1.394,0.45
				c0.69,0,1.225-0.219,1.597-0.656s0.56-1.228,0.56-2.375v-1.093h1.939v0.875c0,1.528-0.321,2.703-0.956,3.523
				c-0.638,0.818-1.686,1.228-3.14,1.228C422.524,205.415,421.707,205.212,421.087,204.813z M425.702,195.939v-1.31
				c0-0.947-0.05-1.693-0.15-2.239c-0.101-0.546-0.307-0.974-0.615-1.284c-0.311-0.309-0.773-0.464-1.392-0.464
				c-0.564,0-1.012,0.122-1.339,0.369c-0.327,0.246-0.563,0.674-0.71,1.284s-0.218,1.469-0.218,2.581v1.064L425.702,195.939
				L425.702,195.939z"/>
			<path fill="#02726C" d="M343.036,231.191c-0.593-1.02-0.888-2.712-0.888-5.079v-2.924c0-2.237,0.266-3.921,0.792-5.051
				c0.526-1.128,1.501-1.694,2.922-1.694c1.019,0,1.948,0.455,2.787,1.366v-7.456h1.992v22.12h-1.992v-1.119
				c-0.839,0.911-1.741,1.365-2.705,1.365C344.596,232.72,343.626,232.211,343.036,231.191z M348.647,230.099v-10.978
				c-0.838-0.746-1.621-1.12-2.35-1.12c-0.837,0-1.404,0.356-1.707,1.066c-0.3,0.709-0.449,1.865-0.449,3.467v3.741
				c0,1.712,0.149,2.949,0.449,3.714c0.303,0.766,0.888,1.147,1.764,1.147C347.119,231.136,347.884,230.791,348.647,230.099z"/>
			<path fill="#02726C" d="M355.227,232.12c-0.62-0.4-1.075-1.048-1.366-1.94c-0.289-0.891-0.437-2.102-0.437-3.631v-3.988
				c0-1.546,0.152-2.762,0.452-3.645c0.299-0.884,0.766-1.516,1.391-1.898c0.629-0.383,1.443-0.575,2.444-0.575
				c1.093,0,1.933,0.233,2.526,0.696c0.591,0.466,1,1.163,1.228,2.09c0.226,0.928,0.341,2.176,0.341,3.74l-0.027,1.419h-6.362v2.347
				c0,1.112,0.063,1.986,0.191,2.624c0.125,0.637,0.354,1.105,0.681,1.405c0.327,0.301,0.793,0.451,1.395,0.451
				c0.691,0,1.224-0.218,1.598-0.657c0.373-0.437,0.56-1.228,0.56-2.375v-1.091h1.938v0.873c0,1.53-0.32,2.702-0.958,3.523
				c-0.636,0.82-1.682,1.229-3.138,1.229C356.664,232.72,355.846,232.52,355.227,232.12z M359.842,223.245v-1.311
				c0-0.947-0.052-1.694-0.149-2.24c-0.101-0.546-0.305-0.973-0.616-1.282c-0.309-0.309-0.773-0.465-1.391-0.465
				c-0.564,0-1.012,0.123-1.339,0.369c-0.326,0.246-0.565,0.673-0.713,1.285c-0.142,0.61-0.218,1.469-0.218,2.579v1.064H359.842z"/>
			<path fill="#02726C" d="M371.269,230.918c-0.828-1.22-1.243-2.912-1.243-5.08v-8.792c0-2.22,0.415-3.926,1.243-5.119
				c0.828-1.192,2.278-1.789,4.355-1.789c1.893,0,3.238,0.537,4.039,1.611c0.803,1.075,1.204,2.631,1.204,4.669v1.338H378.9v-1.284
				c0-1.055-0.081-1.916-0.244-2.581c-0.166-0.664-0.482-1.178-0.955-1.543c-0.476-0.363-1.156-0.547-2.049-0.547
				c-0.967,0-1.702,0.201-2.214,0.601c-0.51,0.4-0.855,0.952-1.036,1.651c-0.183,0.701-0.274,1.598-0.274,2.69v9.42
				c0,1.711,0.262,2.958,0.78,3.741c0.519,0.782,1.432,1.174,2.744,1.174c1.293,0,2.156-0.397,2.595-1.188
				c0.437-0.792,0.653-1.997,0.653-3.62v-1.447h1.968v1.31c0,2.113-0.392,3.741-1.174,4.888c-0.782,1.146-2.139,1.72-4.069,1.72
				C373.547,232.747,372.098,232.14,371.269,230.918z"/>
			<path fill="#02726C" d="M384.335,231.259c-0.618-0.974-0.93-2.471-0.93-4.491v-4.369c0-2.022,0.313-3.519,0.93-4.492
				c0.618-0.974,1.71-1.462,3.277-1.462c1.564,0,2.656,0.488,3.274,1.462c0.619,0.974,0.929,2.47,0.929,4.492v4.369
				c0,2.02-0.311,3.517-0.929,4.491c-0.619,0.974-1.712,1.461-3.274,1.461C386.045,232.72,384.953,232.233,384.335,231.259z
				 M389.072,230.701c0.318-0.347,0.524-0.821,0.615-1.421c0.09-0.601,0.137-1.401,0.137-2.402v-4.588c0-1-0.047-1.802-0.137-2.403
				c-0.091-0.601-0.297-1.074-0.615-1.419s-0.806-0.519-1.46-0.519c-0.657,0-1.143,0.173-1.463,0.519
				c-0.319,0.347-0.524,0.814-0.614,1.406s-0.135,1.398-0.135,2.416v4.588c0,1.021,0.045,1.825,0.135,2.417
				c0.09,0.591,0.295,1.06,0.614,1.406c0.32,0.345,0.806,0.519,1.463,0.519C388.267,231.219,388.754,231.045,389.072,230.701z"/>
			<path fill="#02726C" d="M394.572,216.692h1.995v1.639c0.527-0.582,1.115-1.042,1.761-1.379c0.646-0.336,1.324-0.505,2.035-0.505
				c0.782,0,1.383,0.292,1.801,0.875c0.419,0.583,0.63,1.41,0.63,2.484v12.668H400.8v-12.233c0-0.8-0.123-1.374-0.368-1.719
				c-0.246-0.347-0.624-0.519-1.134-0.519c-0.437,0-0.893,0.131-1.365,0.395c-0.474,0.265-0.93,0.625-1.366,1.078v12.998h-1.995
				L394.572,216.692L394.572,216.692z"/>
			<path fill="#02726C" d="M407.243,231.778c-0.4-0.593-0.6-1.451-0.6-2.58v-11.195h-1.94v-1.312h1.94v-4.888h1.992v4.888h2.623
				v1.312h-2.623v11.003c0,0.801,0.09,1.351,0.273,1.652c0.184,0.3,0.556,0.451,1.12,0.451c0.345,0,0.728-0.047,1.147-0.137v1.529
				c-0.566,0.109-1.13,0.164-1.693,0.164C408.391,232.665,407.645,232.369,407.243,231.778z"/>
			<path fill="#02726C" d="M413.523,216.692h2.021v2.158c0.472-0.782,1.031-1.366,1.678-1.748c0.645-0.381,1.298-0.574,1.953-0.574
				c0.163,0,0.281,0.01,0.354,0.028v2.13c-0.327-0.109-0.656-0.163-0.982-0.163c-1.256,0-2.257,0.61-3.003,1.829v12.122h-2.021
				V216.692z"/>
			<path fill="#02726C" d="M422.044,231.259c-0.62-0.974-0.93-2.471-0.93-4.491v-4.369c0-2.022,0.31-3.519,0.93-4.492
				c0.618-0.974,1.712-1.462,3.273-1.462c1.568,0,2.66,0.488,3.278,1.462s0.928,2.47,0.928,4.492v4.369
				c0,2.02-0.31,3.517-0.928,4.491c-0.619,0.974-1.711,1.461-3.278,1.461C423.756,232.72,422.662,232.233,422.044,231.259z
				 M426.781,230.701c0.321-0.347,0.522-0.821,0.613-1.421c0.092-0.601,0.138-1.401,0.138-2.402v-4.588c0-1-0.046-1.802-0.138-2.403
				c-0.091-0.601-0.292-1.074-0.613-1.419c-0.318-0.345-0.807-0.519-1.464-0.519c-0.653,0-1.14,0.173-1.458,0.519
				c-0.32,0.347-0.525,0.814-0.615,1.406c-0.093,0.592-0.137,1.398-0.137,2.416v4.588c0,1.021,0.044,1.825,0.137,2.417
				c0.09,0.591,0.295,1.06,0.615,1.406c0.318,0.345,0.805,0.519,1.458,0.519C425.975,231.219,426.463,231.045,426.781,230.701z"/>
			<path fill="#02726C" d="M432.556,210.357h1.993v22.117h-1.993V210.357z"/>
		</g>
		<g>
			<g>
				<g>
					<path fill="#02726C" d="M432.804,96.61c0-0.151,0-0.302-0.149-0.453v-0.151c-0.155-0.151-0.155-0.303-0.305-0.456
						l-18.205-18.204c-0.15-0.151-0.303-0.151-0.455-0.303h-0.152c-0.149,0-0.302-0.151-0.454-0.151l0,0h-69.778
						c-0.912,0-1.519,0.606-1.519,1.517v34.891h3.033V79.927h66.749v16.685c0,0.912,0.606,1.52,1.515,1.52h16.688v69.78h3.032V96.61
						L432.804,96.61z M414.602,95.094V82.049l13.046,13.045H414.602z"/>
					<path fill="#02726C" d="M358.472,126.95c0.911,0,1.521-0.606,1.521-1.518V111.78h10.619v-3.033h-12.14l0,0
						c-0.149,0-0.302,0-0.454,0.151h-0.152c-0.149,0.151-0.302,0.151-0.454,0.304l-15.169,15.169
						c-0.304,0.302-0.454,0.606-0.454,1.062v42.476h3.032V126.95H358.472L358.472,126.95z M356.957,113.905v10.012h-10.013
						L356.957,113.905z"/>
					<polygon fill="#02726C" points="408.533,148.188 411.568,148.188 411.568,167.908 408.533,167.908 					"/>
					<polygon fill="#02726C" points="349.373,84.476 364.541,84.476 364.541,87.508 349.373,87.508 					"/>
					<polygon fill="#02726C" points="349.373,90.544 379.71,90.544 379.71,93.578 349.373,93.578 					"/>
					<path fill="#02726C" d="M396.396,107.229c-9.252,0-16.687,7.434-16.687,16.686c0,9.253,7.435,16.687,16.687,16.687
						c9.254,0,16.687-7.434,16.687-16.687C413.083,114.663,405.65,107.229,396.396,107.229z M396.396,137.568
						c-7.583,0-13.651-6.067-13.651-13.651s6.068-13.653,13.651-13.653c7.585,0,13.654,6.069,13.654,13.653
						C410.051,131.502,403.981,137.568,396.396,137.568z"/>
					<path fill="#02726C" d="M396.396,101.162c-12.591,0-22.753,10.163-22.753,22.753c0,10.467,6.977,19.721,16.686,22.45v6.373
						h-1.516c-0.912,0-1.519,0.606-1.519,1.516v13.652h3.033v-6.067h12.137v6.067h3.033v-13.652c0-0.91-0.606-1.516-1.517-1.516
						h-1.518v-6.373c9.708-2.729,16.687-11.983,16.687-22.45C419.152,111.325,408.987,101.162,396.396,101.162z M390.329,158.808
						v-3.035h1.518h9.103h1.517v3.035H390.329z M400.645,143.637c-0.759,0.151-1.216,0.758-1.216,1.517v7.585h-6.065v-7.585
						c0-0.758-0.454-1.364-1.214-1.517c-8.95-1.973-15.475-10.316-15.475-19.721c0-10.922,8.8-19.721,19.722-19.721
						s19.721,8.799,19.721,19.721C416.12,133.321,409.594,141.665,400.645,143.637z"/>
					<polygon fill="#02726C" points="355.438,137.568 373.644,137.568 373.644,140.603 355.438,140.603 					"/>
					<polygon fill="#02726C" points="349.373,145.154 379.71,145.154 379.71,148.188 349.373,148.188 					"/>
					<polygon fill="#02726C" points="349.373,152.739 382.745,152.739 382.745,155.773 349.373,155.773 					"/>
					<polygon fill="#02726C" points="349.373,160.325 382.745,160.325 382.745,163.358 349.373,163.358 					"/>
					<polygon fill="#02726C" points="394.882,122.399 397.914,122.399 397.914,125.434 394.882,125.434 					"/>
					<polygon fill="#02726C" points="394.882,114.814 397.914,114.814 397.914,117.85 394.882,117.85 					"/>
					<polygon fill="#02726C" points="394.882,129.985 397.914,129.985 397.914,133.017 394.882,133.017 					"/>
					<polygon fill="#02726C" points="402.466,122.399 405.5,122.399 405.5,125.434 402.466,125.434 					"/>
					<polygon fill="#02726C" points="387.297,122.399 390.329,122.399 390.329,125.434 387.297,125.434 					"/>
					<polygon fill="#02726C" points="390.329,117.85 393.364,117.85 393.364,120.883 390.329,120.883 					"/>
					<polygon fill="#02726C" points="399.432,117.85 402.466,117.85 402.466,120.883 399.432,120.883 					"/>
					<polygon fill="#02726C" points="399.432,126.95 402.466,126.95 402.466,129.985 399.432,129.985 					"/>
					<polygon fill="#02726C" points="390.329,126.95 393.364,126.95 393.364,129.985 390.329,129.985 					"/>
				</g>
			</g>
		</g>
	</g>
	<g>
		<g>
			<path fill="#02726C" d="M63.258,388.036h1.964v20.938h-1.964V388.036z"/>
			<path fill="#02726C" d="M68.556,394.033h1.888v1.553c0.5-0.552,1.056-0.988,1.667-1.307c0.611-0.318,1.253-0.478,1.925-0.478
				c0.741,0,1.31,0.276,1.706,0.825c0.396,0.554,0.595,1.336,0.595,2.354v11.993H74.45v-11.579c0-0.755-0.117-1.299-0.349-1.63
				c-0.233-0.324-0.591-0.488-1.073-0.488c-0.414,0-0.845,0.126-1.292,0.375c-0.449,0.252-0.879,0.591-1.292,1.021v12.306h-1.888
				L68.556,394.033L68.556,394.033z"/>
			<path fill="#02726C" d="M80.058,395.404h-1.913v-1.372h1.913v-1.553c0-0.842,0.065-1.529,0.194-2.066
				c0.128-0.531,0.393-0.955,0.788-1.265c0.396-0.313,0.982-0.47,1.757-0.47c0.499,0,1.008,0.055,1.525,0.156v1.424
				c-0.138-0.018-0.319-0.045-0.543-0.077c-0.224-0.034-0.397-0.052-0.517-0.052c-0.535,0-0.884,0.159-1.046,0.479
				c-0.165,0.32-0.246,0.88-0.246,1.693v1.729h2.404v1.372H81.97v13.568h-1.913V395.404z"/>
			<path fill="#02726C" d="M86.649,407.824c-0.586-0.922-0.88-2.338-0.88-4.251v-4.136c0-1.915,0.294-3.33,0.88-4.255
				c0.585-0.919,1.619-1.381,3.1-1.381c1.482,0,2.516,0.463,3.102,1.381c0.587,0.925,0.879,2.34,0.879,4.255v4.136
				c0,1.913-0.292,3.329-0.879,4.251c-0.586,0.923-1.619,1.384-3.102,1.384C88.268,409.208,87.235,408.745,86.649,407.824z
				 M91.134,407.293c0.301-0.326,0.495-0.775,0.581-1.344c0.085-0.568,0.129-1.326,0.129-2.273v-4.344
				c0-0.949-0.044-1.704-0.129-2.274c-0.086-0.568-0.28-1.018-0.581-1.346c-0.301-0.325-0.763-0.489-1.383-0.489
				s-1.081,0.164-1.382,0.489c-0.302,0.328-0.496,0.772-0.581,1.334c-0.087,0.559-0.13,1.321-0.13,2.286v4.344
				c0,0.964,0.043,1.726,0.13,2.287c0.086,0.558,0.279,1.003,0.581,1.328c0.301,0.328,0.761,0.494,1.382,0.494
				S90.833,407.621,91.134,407.293z"/>
			<path fill="#02726C" d="M96.471,394.033h1.914v2.043c0.449-0.742,0.979-1.291,1.59-1.655c0.611-0.362,1.228-0.542,1.848-0.542
				c0.155,0,0.267,0.008,0.337,0.025v2.017c-0.311-0.103-0.62-0.157-0.93-0.157c-1.19,0-2.138,0.579-2.844,1.734v11.475h-1.914
				V394.033L96.471,394.033z"/>
			<path fill="#02726C" d="M104.018,394.033h1.759v1.524c0.48-0.583,1.025-1.028,1.628-1.329c0.603-0.303,1.231-0.452,1.886-0.452
				c1.242,0,2.033,0.645,2.378,1.936c0.5-0.636,1.063-1.118,1.693-1.445c0.628-0.327,1.288-0.49,1.977-0.49
				c0.741,0,1.349,0.268,1.822,0.799c0.474,0.536,0.711,1.407,0.711,2.613v11.785h-1.756V397.24c0-0.811-0.129-1.375-0.389-1.69
				c-0.259-0.322-0.629-0.48-1.111-0.48c-0.448,0-0.922,0.137-1.423,0.413c-0.5,0.275-0.965,0.657-1.396,1.137
				c0.033,0.241,0.05,0.433,0.05,0.57v11.785h-1.784v-11.733c0-0.826-0.13-1.396-0.388-1.707c-0.257-0.311-0.628-0.465-1.111-0.465
				c-0.449,0-0.913,0.137-1.396,0.413c-0.483,0.275-0.948,0.646-1.396,1.112v12.38h-1.759v-14.941H104.018z"/>
			<path fill="#02726C" d="M121.079,408.249c-0.552-0.637-0.828-1.429-0.828-2.377c0-0.979,0.189-1.785,0.569-2.416
				c0.379-0.627,0.974-1.193,1.785-1.694c0.809-0.499,2.032-1.118,3.669-1.86v-1.06c0-0.932-0.055-1.655-0.167-2.173
				c-0.113-0.517-0.302-0.888-0.571-1.112c-0.267-0.225-0.642-0.335-1.124-0.335c-1.396,0-2.094,0.854-2.094,2.561v0.54
				l-1.862-0.052l0.026-0.437c0.051-1.416,0.413-2.439,1.086-3.078c0.671-0.636,1.655-0.956,2.947-0.956
				c1.31,0,2.245,0.397,2.805,1.191c0.559,0.79,0.84,2.039,0.84,3.744v7.266c0,0.485,0.012,1.034,0.039,1.655
				c0.025,0.62,0.056,1.06,0.089,1.317h-1.68l-0.284-2.068c-0.226,0.657-0.607,1.202-1.151,1.642
				c-0.543,0.438-1.185,0.661-1.925,0.661C122.353,409.208,121.63,408.89,121.079,408.249z M125.253,407.075
				c0.423-0.353,0.762-0.773,1.021-1.256v-4.653c-1.206,0.639-2.059,1.119-2.559,1.438c-0.5,0.319-0.887,0.693-1.163,1.123
				s-0.414,0.99-0.414,1.679c0,0.744,0.16,1.294,0.479,1.656c0.319,0.363,0.727,0.544,1.227,0.544
				C124.361,407.605,124.83,407.427,125.253,407.075z"/>
			<path fill="#02726C" d="M132.115,408.472c-0.586-0.492-0.978-1.155-1.176-1.99c-0.199-0.836-0.297-1.893-0.297-3.17v-3.487
				c0-1.447,0.118-2.602,0.35-3.465c0.232-0.861,0.636-1.502,1.214-1.925c0.578-0.421,1.392-0.633,2.443-0.633
				c1.464,0,2.463,0.401,2.997,1.203c0.533,0.802,0.801,1.995,0.801,3.578v0.726h-1.757v-0.726c0-0.878-0.065-1.561-0.193-2.038
				c-0.128-0.484-0.34-0.826-0.634-1.024c-0.293-0.198-0.698-0.298-1.214-0.298c-0.586,0-1.03,0.137-1.331,0.414
				c-0.302,0.275-0.509,0.712-0.621,1.307c-0.113,0.591-0.169,1.451-0.169,2.572v4.184c0,1.034,0.061,1.847,0.181,2.431
				c0.12,0.583,0.336,1.008,0.646,1.27c0.309,0.257,0.749,0.387,1.319,0.387c0.585,0,1.021-0.127,1.305-0.377
				c0.284-0.248,0.474-0.624,0.57-1.124c0.094-0.496,0.142-1.196,0.142-2.093v-0.825h1.757v0.724c0,1.12-0.1,2.046-0.297,2.776
				c-0.199,0.733-0.573,1.305-1.125,1.718c-0.55,0.418-1.343,0.624-2.376,0.624C133.546,409.208,132.701,408.96,132.115,408.472z"/>
			<path fill="#02726C" d="M141.189,389.408h1.886v2.559h-1.886V389.408z M141.189,394.033h1.886v14.94h-1.886V394.033z"/>
			<path fill="#02726C" d="M146.849,407.824c-0.586-0.922-0.879-2.338-0.879-4.251v-4.136c0-1.915,0.294-3.33,0.879-4.255
				c0.586-0.919,1.62-1.381,3.102-1.381c1.481,0,2.515,0.463,3.102,1.381c0.583,0.925,0.877,2.34,0.877,4.255v4.136
				c0,1.913-0.294,3.329-0.877,4.251c-0.588,0.923-1.621,1.384-3.102,1.384C148.467,409.208,147.435,408.745,146.849,407.824z
				 M151.333,407.293c0.301-0.326,0.496-0.775,0.582-1.344c0.086-0.568,0.129-1.326,0.129-2.273v-4.344
				c0-0.949-0.043-1.704-0.129-2.274c-0.086-0.568-0.279-1.018-0.582-1.346c-0.301-0.325-0.763-0.489-1.382-0.489
				c-0.621,0-1.083,0.164-1.383,0.489c-0.301,0.328-0.497,0.772-0.582,1.334c-0.086,0.559-0.129,1.321-0.129,2.286v4.344
				c0,0.964,0.043,1.726,0.129,2.287c0.085,0.558,0.28,1.003,0.582,1.328c0.301,0.328,0.763,0.494,1.383,0.494
				C150.57,407.786,151.032,407.621,151.333,407.293z M151.113,387.729H153l-2.534,5.065h-0.983L151.113,387.729z"/>
			<path fill="#02726C" d="M156.541,394.033h1.887v1.553c0.499-0.552,1.055-0.988,1.668-1.307c0.611-0.318,1.252-0.478,1.925-0.478
				c0.741,0,1.309,0.276,1.705,0.825c0.397,0.554,0.596,1.336,0.596,2.354v11.993h-1.888v-11.579c0-0.755-0.116-1.299-0.349-1.63
				c-0.232-0.324-0.591-0.488-1.073-0.488c-0.413,0-0.845,0.126-1.293,0.375c-0.449,0.252-0.88,0.591-1.292,1.021v12.306h-1.888
				v-14.944H156.541z"/>
			<path fill="#02726C" d="M171.972,411.226c1.172,0,1.97-0.115,2.392-0.338c0.422-0.224,0.633-0.604,0.633-1.136
				c0-0.206-0.01-0.371-0.025-0.493c-0.035-0.274-0.139-0.774-0.31-1.5l-0.129-0.565c-0.311-1.311-0.682-2.879-1.112-4.706
				s-0.835-3.551-1.216-5.171c-0.5-2.153-0.75-3.248-0.75-3.283h1.887l2.585,12.717l2.507-12.717h1.913l-3.619,16.003
				c-0.224,0.946-0.673,1.626-1.344,2.04c-0.672,0.413-1.646,0.619-2.921,0.619h-0.491V411.226z"/>
			<path fill="#02726C" d="M63.942,433.35c-0.784-1.156-1.176-2.757-1.176-4.807v-8.325c0-2.102,0.393-3.716,1.176-4.848
				c0.784-1.127,2.159-1.688,4.122-1.688c1.792,0,3.068,0.507,3.826,1.523c0.759,1.019,1.138,2.49,1.138,4.42v1.268h-1.861v-1.214
				c0-1.001-0.078-1.816-0.232-2.442c-0.155-0.631-0.457-1.118-0.904-1.463c-0.448-0.343-1.094-0.518-1.94-0.518
				c-0.912,0-1.611,0.191-2.093,0.572c-0.482,0.377-0.81,0.898-0.981,1.561c-0.173,0.665-0.258,1.513-0.258,2.549v8.915
				c0,1.621,0.246,2.801,0.737,3.543c0.491,0.74,1.356,1.112,2.597,1.112c1.224,0,2.043-0.376,2.457-1.124
				c0.413-0.751,0.62-1.892,0.62-3.425v-1.373h1.861v1.243c0,1.998-0.371,3.538-1.113,4.624c-0.741,1.085-2.024,1.63-3.851,1.63
				C66.101,435.081,64.726,434.504,63.942,433.35z"/>
			<path fill="#02726C" d="M76.31,433.673c-0.586-0.926-0.878-2.342-0.878-4.252v-4.138c0-1.912,0.292-3.33,0.878-4.249
				c0.586-0.925,1.62-1.384,3.102-1.384s2.516,0.46,3.102,1.384c0.585,0.919,0.878,2.337,0.878,4.249v4.138
				c0,1.91-0.293,3.325-0.878,4.252c-0.586,0.922-1.62,1.381-3.102,1.381S76.896,434.595,76.31,433.673z M80.795,433.142
				c0.301-0.327,0.495-0.775,0.582-1.344c0.084-0.569,0.129-1.327,0.129-2.273v-4.341c0-0.949-0.045-1.709-0.129-2.275
				c-0.086-0.568-0.281-1.016-0.582-1.346c-0.301-0.324-0.763-0.488-1.383-0.488c-0.621,0-1.081,0.164-1.382,0.488
				c-0.302,0.33-0.497,0.773-0.582,1.331c-0.086,0.562-0.128,1.324-0.128,2.29v4.341c0,0.967,0.042,1.725,0.128,2.287
				c0.086,0.56,0.279,1.003,0.582,1.33c0.301,0.328,0.761,0.491,1.382,0.491C80.033,433.633,80.495,433.47,80.795,433.142z"/>
			<path fill="#02726C" d="M86.003,419.882h1.758v1.523c0.48-0.585,1.024-1.026,1.628-1.33c0.603-0.301,1.231-0.453,1.887-0.453
				c1.24,0,2.034,0.647,2.378,1.938c0.5-0.634,1.064-1.119,1.692-1.445c0.629-0.327,1.288-0.492,1.978-0.492
				c0.74,0,1.349,0.27,1.822,0.801c0.475,0.536,0.711,1.406,0.711,2.613v11.786h-1.757v-11.734c0-0.811-0.13-1.375-0.387-1.693
				c-0.259-0.318-0.629-0.478-1.111-0.478c-0.448,0-0.923,0.137-1.423,0.416c-0.5,0.271-0.965,0.653-1.396,1.133
				c0.034,0.241,0.051,0.431,0.051,0.571v11.787h-1.784v-11.735c0-0.829-0.128-1.397-0.387-1.706
				c-0.257-0.31-0.629-0.466-1.11-0.466c-0.448,0-0.913,0.137-1.397,0.416c-0.483,0.271-0.946,0.644-1.395,1.111v12.38h-1.758
				L86.003,419.882L86.003,419.882z"/>
			<path fill="#02726C" d="M103.114,434.227c-0.396-0.551-0.595-1.333-0.595-2.35v-11.995h1.914v11.578
				c0,0.763,0.118,1.3,0.349,1.617c0.232,0.318,0.59,0.479,1.072,0.479c0.432,0,0.874-0.133,1.332-0.402
				c0.457-0.266,0.892-0.623,1.304-1.071v-12.201h1.888v14.94h-1.888v-1.654c-0.5,0.586-1.059,1.047-1.68,1.382
				c-0.62,0.336-1.274,0.502-1.964,0.502C104.087,435.054,103.511,434.778,103.114,434.227z"/>
			<path fill="#02726C" d="M113.297,419.882h1.887v1.551c0.5-0.55,1.055-0.986,1.667-1.306c0.61-0.318,1.254-0.477,1.925-0.477
				c0.741,0,1.311,0.275,1.707,0.826c0.396,0.55,0.593,1.334,0.593,2.354v11.992h-1.887v-11.58c0-0.758-0.116-1.302-0.349-1.63
				c-0.231-0.326-0.59-0.488-1.073-0.488c-0.414,0-0.844,0.126-1.293,0.375c-0.447,0.248-0.877,0.589-1.293,1.02v12.306h-1.887
				v-14.942H113.297z"/>
			<path fill="#02726C" d="M124.078,415.255h1.886v2.558h-1.886V415.255z M124.078,419.882h1.886v14.94h-1.886V419.882z"/>
			<path fill="#02726C" d="M130.332,434.318c-0.585-0.493-0.978-1.154-1.175-1.99c-0.199-0.836-0.299-1.892-0.299-3.165v-3.49
				c0-1.448,0.117-2.602,0.35-3.464c0.232-0.864,0.637-1.506,1.215-1.928c0.578-0.423,1.392-0.631,2.443-0.631
				c1.464,0,2.464,0.4,2.999,1.2c0.533,0.8,0.801,1.996,0.801,3.581v0.723h-1.758v-0.723c0-0.879-0.063-1.56-0.193-2.044
				c-0.13-0.481-0.341-0.823-0.633-1.021c-0.294-0.197-0.698-0.296-1.214-0.296c-0.586,0-1.03,0.138-1.331,0.412
				c-0.301,0.276-0.508,0.71-0.621,1.307c-0.111,0.594-0.167,1.451-0.167,2.57v4.19c0,1.032,0.06,1.843,0.181,2.43
				c0.12,0.585,0.335,1.007,0.646,1.263c0.311,0.263,0.75,0.39,1.319,0.39c0.585,0,1.02-0.124,1.306-0.373
				c0.284-0.252,0.474-0.625,0.568-1.125c0.094-0.501,0.141-1.198,0.141-2.096v-0.824h1.758v0.722c0,1.122-0.099,2.046-0.297,2.777
				c-0.199,0.734-0.573,1.307-1.125,1.719c-0.551,0.415-1.344,0.621-2.377,0.621C131.762,435.054,130.917,434.81,130.332,434.318z"
				/>
			<path fill="#02726C" d="M139.612,434.098c-0.552-0.634-0.828-1.429-0.828-2.375c0-0.983,0.189-1.789,0.568-2.419
				c0.38-0.629,0.975-1.192,1.784-1.692c0.809-0.501,2.033-1.121,3.67-1.863v-1.059c0-0.931-0.056-1.653-0.167-2.172
				c-0.113-0.517-0.302-0.885-0.57-1.112c-0.268-0.223-0.642-0.334-1.125-0.334c-1.396,0-2.093,0.852-2.093,2.559v0.543l-1.86-0.051
				l0.025-0.44c0.052-1.413,0.415-2.439,1.086-3.075c0.671-0.637,1.653-0.956,2.946-0.956c1.31,0,2.245,0.396,2.805,1.186
				c0.56,0.797,0.841,2.046,0.841,3.751v7.263c0,0.482,0.013,1.034,0.039,1.656c0.026,0.62,0.056,1.059,0.092,1.318h-1.681
				l-0.285-2.07c-0.224,0.657-0.607,1.204-1.149,1.642c-0.543,0.44-1.185,0.659-1.926,0.659
				C140.887,435.054,140.164,434.733,139.612,434.098z M143.786,432.921c0.424-0.351,0.764-0.771,1.021-1.251v-4.653
				c-1.205,0.635-2.059,1.115-2.559,1.43c-0.5,0.324-0.888,0.698-1.163,1.128c-0.276,0.429-0.414,0.991-0.414,1.678
				c0,0.742,0.159,1.294,0.479,1.654c0.319,0.364,0.728,0.543,1.228,0.543C142.895,433.452,143.364,433.276,143.786,432.921z"/>
			<path fill="#02726C" d="M150.648,434.318c-0.586-0.493-0.979-1.154-1.176-1.99s-0.297-1.892-0.297-3.165v-3.49
				c0-1.448,0.117-2.602,0.35-3.464c0.233-0.864,0.637-1.506,1.215-1.928c0.578-0.423,1.391-0.631,2.443-0.631
				c1.463,0,2.464,0.4,2.997,1.2s0.801,1.996,0.801,3.581v0.723h-1.757v-0.723c0-0.879-0.065-1.56-0.194-2.044
				c-0.129-0.481-0.342-0.823-0.634-1.021s-0.698-0.296-1.214-0.296c-0.586,0-1.03,0.138-1.333,0.412
				c-0.301,0.276-0.508,0.71-0.62,1.307c-0.113,0.594-0.168,1.451-0.168,2.57v4.19c0,1.032,0.06,1.843,0.181,2.43
				c0.12,0.585,0.336,1.007,0.646,1.263c0.309,0.263,0.749,0.39,1.319,0.39c0.584,0,1.02-0.124,1.305-0.373
				c0.283-0.252,0.474-0.625,0.568-1.125c0.095-0.501,0.143-1.198,0.143-2.096v-0.824h1.757v0.722c0,1.122-0.1,2.046-0.297,2.777
				c-0.198,0.734-0.573,1.307-1.125,1.719c-0.552,0.415-1.344,0.621-2.377,0.621C152.077,435.054,151.233,434.81,150.648,434.318z"
				/>
			<path fill="#02726C" d="M159.722,415.255h1.887v2.558h-1.887V415.255z M159.722,419.882h1.887v14.94h-1.887V419.882z"/>
			<path fill="#02726C" d="M165.381,433.673c-0.585-0.926-0.879-2.342-0.879-4.252v-4.138c0-1.912,0.294-3.33,0.879-4.249
				c0.585-0.925,1.62-1.384,3.103-1.384c1.482,0,2.514,0.46,3.102,1.384c0.584,0.919,0.877,2.337,0.877,4.249v4.138
				c0,1.91-0.294,3.325-0.877,4.252c-0.588,0.922-1.62,1.381-3.102,1.381C167.001,435.054,165.967,434.595,165.381,433.673z
				 M169.867,433.142c0.301-0.327,0.495-0.775,0.58-1.344c0.086-0.569,0.129-1.327,0.129-2.273v-4.341
				c0-0.949-0.043-1.709-0.129-2.275c-0.086-0.568-0.279-1.016-0.58-1.346c-0.302-0.324-0.763-0.488-1.383-0.488
				c-0.621,0-1.083,0.164-1.382,0.488c-0.302,0.33-0.496,0.773-0.583,1.331c-0.086,0.562-0.128,1.324-0.128,2.29v4.341
				c0,0.967,0.042,1.725,0.128,2.287c0.086,0.56,0.281,1.003,0.583,1.33c0.3,0.328,0.762,0.491,1.382,0.491
				C169.104,433.633,169.564,433.47,169.867,433.142z M169.646,413.574h1.888L169,418.64h-0.982L169.646,413.574z"/>
			<path fill="#02726C" d="M175.074,419.882h1.886v1.551c0.5-0.55,1.056-0.986,1.669-1.306c0.61-0.318,1.253-0.477,1.924-0.477
				c0.74,0,1.31,0.275,1.707,0.826c0.397,0.55,0.593,1.334,0.593,2.354v11.992h-1.887v-11.58c0-0.758-0.115-1.302-0.349-1.63
				c-0.232-0.326-0.591-0.488-1.073-0.488c-0.413,0-0.844,0.126-1.292,0.375c-0.448,0.248-0.879,0.589-1.294,1.02v12.306h-1.886
				L175.074,419.882L175.074,419.882z"/>
		</g>
		<g>
			<g>
				<g>
					<path fill="#02726C" d="M133.661,309.475l-22.062-22.062c-0.515-0.52-1.216-0.81-1.948-0.81H98.618v5.516h8.274v19.301
						c0,1.526,1.233,2.763,2.758,2.763h19.305v55.153H68.284v-77.217h2.757v-5.517h-5.516c-1.524,0-2.757,1.235-2.757,2.758v82.735
						c0,1.524,1.233,2.76,2.757,2.76h66.187c1.527,0,2.759-1.235,2.759-2.76v-60.673
						C134.469,310.692,134.18,309.989,133.661,309.475z M112.405,308.663v-12.646l12.647,12.646H112.405z"/>
				</g>
			</g>
			<g>
				<g>
					<path fill="#02726C" d="M90.345,286.602H79.312c-1.524,0-2.757,1.235-2.757,2.758v44.127c0,0.427,0.1,0.852,0.291,1.231
						l5.516,11.028c0.468,0.938,1.423,1.525,2.467,1.525c1.048,0,1.999-0.588,2.469-1.525l5.516-11.028
						c0.192-0.38,0.291-0.805,0.291-1.231V289.36C93.102,287.837,91.871,286.602,90.345,286.602z M87.586,332.834l-2.758,5.519
						l-2.757-5.519v-29.683h5.516v29.683H87.586z M87.586,297.635H82.07v-5.517h5.516V297.635z"/>
				</g>
			</g>
			<g>
				<g>
					<polygon fill="#02726C" points="95.859,341.758 123.438,341.758 123.438,347.273 95.859,347.273 					"/>
				</g>
			</g>
			<g>
				<g>
					<polygon fill="#02726C" points="101.376,330.727 123.438,330.727 123.438,336.245 101.376,336.245 					"/>
				</g>
			</g>
			<g>
				<g>
					<polygon fill="#02726C" points="101.376,319.698 123.438,319.698 123.438,325.212 101.376,325.212 					"/>
				</g>
			</g>
			<g>
				<g>
					<polygon fill="#02726C" points="84.828,352.792 123.438,352.792 123.438,358.307 84.828,358.307 					"/>
				</g>
			</g>
			<g>
				<g>
					<polygon fill="#02726C" points="73.797,352.792 79.312,352.792 79.312,358.307 73.797,358.307 					"/>
				</g>
			</g>
		</g>
	</g>
	<g>
		<g>
			<path fill="#02726C" d="M255.989,503.638h2.194l4.721,22.23h-2.058l-1.098-5.955h-5.297l-1.125,5.955h-2.031L255.989,503.638z
				 M259.473,518.404l-2.359-11.994l-2.361,11.994H259.473z"/>
			<path fill="#02726C" d="M266.442,525.333c-0.621-0.523-1.038-1.227-1.248-2.114c-0.211-0.887-0.316-2.009-0.316-3.362v-3.705
				c0-1.536,0.125-2.762,0.372-3.678c0.246-0.914,0.675-1.596,1.29-2.044c0.612-0.447,1.476-0.672,2.593-0.672
				c1.554,0,2.616,0.424,3.182,1.274c0.566,0.852,0.852,2.118,0.852,3.802v0.77h-1.868v-0.77c0-0.932-0.067-1.657-0.204-2.169
				c-0.137-0.512-0.362-0.874-0.673-1.083c-0.312-0.211-0.741-0.317-1.289-0.317c-0.624,0-1.095,0.148-1.415,0.44
				c-0.319,0.292-0.539,0.755-0.658,1.385c-0.119,0.631-0.179,1.541-0.179,2.73v4.446c0,1.099,0.064,1.959,0.193,2.579
				c0.127,0.622,0.354,1.07,0.684,1.345c0.329,0.273,0.797,0.413,1.4,0.413c0.621,0,1.083-0.134,1.388-0.399
				c0.301-0.265,0.502-0.663,0.602-1.194c0.101-0.529,0.15-1.271,0.15-2.222v-0.879h1.868v0.77c0,1.188-0.106,2.173-0.316,2.95
				c-0.212,0.777-0.607,1.386-1.194,1.824c-0.586,0.439-1.427,0.658-2.524,0.658C267.961,526.115,267.064,525.854,266.442,525.333z"
				/>
			<path fill="#02726C" d="M277.366,525.168c-0.402-0.594-0.603-1.459-0.603-2.593v-11.251h-1.948v-1.318h1.948v-4.913h2.003v4.913
				h2.634v1.318h-2.634v11.061c0,0.805,0.091,1.358,0.273,1.659c0.183,0.302,0.559,0.454,1.125,0.454
				c0.347,0,0.732-0.047,1.154-0.139v1.538c-0.568,0.108-1.135,0.163-1.702,0.163C278.518,526.06,277.769,525.763,277.366,525.168z"
				/>
			<path fill="#02726C" d="M283.762,505.093h2.002v2.717h-2.002V505.093z M283.762,510.006h2.002v15.86h-2.002V510.006z"/>
			<path fill="#02726C" d="M288.097,510.006h2.031l2.58,13.557l2.553-13.557h1.948l-3.321,15.86h-2.359L288.097,510.006z"/>
			<path fill="#02726C" d="M299.458,505.093h2.006v2.717h-2.006V505.093z M299.458,510.006h2.006v15.86h-2.006V510.006z"/>
			<path fill="#02726C" d="M305.426,524.579c-0.595-1.026-0.891-2.726-0.891-5.107v-2.936c0-2.25,0.265-3.941,0.794-5.076
				c0.532-1.134,1.511-1.701,2.937-1.701c1.024,0,1.958,0.458,2.799,1.372v-7.493h2.004v22.23h-2.002v-1.124
				c-0.841,0.915-1.747,1.372-2.718,1.372C306.997,526.115,306.021,525.604,305.426,524.579z M311.066,523.48v-11.032
				c-0.841-0.749-1.628-1.125-2.361-1.125c-0.842,0-1.413,0.354-1.716,1.069c-0.3,0.714-0.451,1.876-0.451,3.483v3.763
				c0,1.719,0.151,2.964,0.451,3.73c0.303,0.771,0.894,1.154,1.772,1.154C309.531,524.523,310.298,524.176,311.066,523.48z"/>
			<path fill="#02726C" d="M316.611,525.1c-0.588-0.676-0.881-1.519-0.881-2.524c0-1.042,0.2-1.897,0.604-2.566
				c0.402-0.668,1.032-1.267,1.894-1.797c0.86-0.528,2.161-1.189,3.897-1.977v-1.125c0-0.988-0.059-1.757-0.179-2.307
				c-0.118-0.549-0.319-0.942-0.604-1.179c-0.283-0.235-0.682-0.358-1.194-0.358c-1.482,0-2.221,0.907-2.221,2.72v0.575
				l-1.978-0.056l0.027-0.467c0.055-1.498,0.438-2.589,1.152-3.266c0.713-0.677,1.757-1.016,3.129-1.016
				c1.391,0,2.38,0.421,2.976,1.263c0.594,0.84,0.894,2.169,0.894,3.979v7.712c0,0.513,0.013,1.099,0.041,1.757
				c0.025,0.66,0.06,1.125,0.096,1.398h-1.784l-0.302-2.195c-0.238,0.696-0.645,1.276-1.22,1.744
				c-0.579,0.468-1.26,0.698-2.047,0.698C317.962,526.115,317.195,525.776,316.611,525.1z M321.042,523.851
				c0.449-0.375,0.808-0.818,1.084-1.33v-4.939c-1.278,0.677-2.188,1.183-2.719,1.523c-0.531,0.338-0.941,0.734-1.233,1.191
				c-0.293,0.459-0.438,1.054-0.438,1.785c0,0.786,0.171,1.371,0.508,1.757c0.337,0.382,0.772,0.574,1.302,0.574
				C320.096,524.414,320.591,524.227,321.042,523.851z"/>
			<path fill="#02726C" d="M327.654,524.579c-0.595-1.026-0.89-2.726-0.89-5.107v-2.936c0-2.25,0.266-3.941,0.796-5.076
				c0.529-1.134,1.508-1.701,2.934-1.701c1.026,0,1.958,0.458,2.801,1.372v-7.493h2.005v22.23h-2.005v-1.124
				c-0.843,0.915-1.749,1.372-2.719,1.372C329.226,526.115,328.251,525.604,327.654,524.579z M333.295,523.48v-11.032
				c-0.841-0.749-1.627-1.125-2.36-1.125c-0.841,0-1.413,0.354-1.715,1.069c-0.301,0.714-0.453,1.876-0.453,3.483v3.763
				c0,1.719,0.152,2.964,0.453,3.73c0.302,0.771,0.894,1.154,1.771,1.154C331.757,524.523,332.527,524.176,333.295,523.48z"/>
			<path fill="#02726C" d="M339.91,525.511c-0.625-0.401-1.079-1.053-1.374-1.948c-0.291-0.896-0.438-2.113-0.438-3.649v-4.008
				c0-1.555,0.152-2.773,0.454-3.663c0.3-0.888,0.769-1.524,1.398-1.908c0.632-0.385,1.449-0.575,2.456-0.575
				c1.099,0,1.946,0.233,2.538,0.7c0.598,0.467,1.009,1.166,1.236,2.098c0.227,0.935,0.342,2.188,0.342,3.761l-0.024,1.428h-6.396
				v2.358c0,1.118,0.063,1.997,0.191,2.636c0.127,0.641,0.356,1.111,0.687,1.413c0.328,0.303,0.796,0.454,1.4,0.454
				c0.695,0,1.229-0.22,1.606-0.659c0.373-0.439,0.56-1.234,0.56-2.388v-1.099h1.951v0.878c0,1.536-0.321,2.718-0.963,3.541
				c-0.64,0.824-1.691,1.233-3.154,1.233C341.354,526.115,340.53,525.913,339.91,525.511z M344.547,516.592v-1.318
				c0-0.952-0.052-1.702-0.15-2.251c-0.103-0.549-0.307-0.978-0.618-1.287c-0.313-0.314-0.779-0.47-1.4-0.47
				c-0.567,0-1.015,0.125-1.344,0.372s-0.569,0.676-0.714,1.29c-0.146,0.615-0.221,1.477-0.221,2.594v1.07H344.547L344.547,516.592z
				"/>
			<path fill="#02726C" d="M349.854,524.908c-0.756-0.806-1.192-1.903-1.302-3.294l1.675-0.521c0.109,1.208,0.388,2.095,0.835,2.66
				c0.448,0.57,1.075,0.854,1.88,0.854c0.694,0,1.24-0.202,1.636-0.604c0.391-0.403,0.588-0.951,0.588-1.647
				c0-1.022-0.642-2.084-1.922-3.183l-2.167-1.866c-0.732-0.604-1.276-1.208-1.637-1.812c-0.355-0.603-0.534-1.299-0.534-2.086
				c0-1.153,0.34-2.049,1.017-2.689c0.676-0.641,1.6-0.96,2.772-0.96s2.072,0.376,2.704,1.126c0.63,0.75,0.981,1.765,1.057,3.043
				l-1.429,0.469c-0.107-2.084-0.856-3.13-2.25-3.13c-0.622,0-1.122,0.171-1.494,0.508c-0.375,0.341-0.555,0.812-0.535,1.416
				c0,0.493,0.091,0.929,0.275,1.303c0.182,0.375,0.522,0.774,1.014,1.193l2.254,2.004c0.837,0.751,1.49,1.461,1.947,2.127
				c0.456,0.668,0.686,1.495,0.686,2.483c0,1.207-0.367,2.146-1.098,2.813s-1.722,1.001-2.965,1.001
				C351.616,526.115,350.616,525.713,349.854,524.908z"/>
			<path fill="#02726C" d="M258.32,552.022c-0.595-1.024-0.892-2.727-0.892-5.106v-2.935c0-2.25,0.265-3.942,0.797-5.077
				c0.53-1.134,1.509-1.701,2.935-1.701c1.026,0,1.959,0.458,2.801,1.372v-7.493h2.003v22.23h-2.003v-1.125
				c-0.843,0.915-1.748,1.372-2.718,1.372C259.888,553.559,258.915,553.047,258.32,552.022z M263.959,550.924v-11.032
				c-0.843-0.749-1.629-1.124-2.36-1.124c-0.842,0-1.413,0.356-1.716,1.069c-0.302,0.713-0.452,1.875-0.452,3.485v3.759
				c0,1.723,0.15,2.966,0.452,3.733c0.303,0.769,0.893,1.152,1.771,1.152C262.422,551.967,263.191,551.618,263.959,550.924z"/>
			<path fill="#02726C" d="M270.573,552.954c-0.622-0.4-1.079-1.051-1.372-1.948c-0.292-0.896-0.439-2.114-0.439-3.65v-4.008
				c0-1.555,0.152-2.773,0.453-3.662c0.302-0.89,0.769-1.523,1.399-1.908c0.633-0.384,1.45-0.575,2.458-0.575
				c1.098,0,1.942,0.23,2.537,0.699c0.596,0.468,1.006,1.167,1.236,2.1c0.228,0.933,0.344,2.186,0.344,3.76l-0.028,1.428h-6.395
				v2.357c0,1.12,0.064,1.997,0.193,2.636c0.127,0.642,0.355,1.112,0.685,1.413c0.329,0.304,0.796,0.456,1.399,0.456
				c0.696,0,1.23-0.222,1.605-0.662c0.376-0.438,0.563-1.232,0.563-2.386v-1.099h1.949v0.877c0,1.537-0.321,2.719-0.96,3.541
				c-0.64,0.825-1.694,1.235-3.157,1.235C272.019,553.559,271.196,553.357,270.573,552.954z M275.21,544.035v-1.317
				c0-0.952-0.05-1.702-0.151-2.251c-0.1-0.548-0.305-0.977-0.617-1.289c-0.311-0.311-0.777-0.468-1.399-0.468
				c-0.566,0-1.016,0.124-1.345,0.371c-0.329,0.247-0.567,0.677-0.714,1.292c-0.147,0.612-0.221,1.475-0.221,2.593v1.069H275.21
				L275.21,544.035z"/>
			<path fill="#02726C" d="M286.697,551.748c-0.833-1.227-1.25-2.928-1.25-5.106v-8.838c0-2.23,0.417-3.946,1.25-5.146
				c0.831-1.197,2.29-1.797,4.377-1.797c1.9,0,3.255,0.541,4.061,1.62c0.805,1.08,1.208,2.644,1.208,4.692v1.346h-1.976v-1.29
				c0-1.06-0.082-1.926-0.249-2.594c-0.163-0.667-0.484-1.184-0.958-1.55c-0.476-0.365-1.162-0.549-2.058-0.549
				c-0.971,0-1.712,0.201-2.224,0.603c-0.512,0.402-0.86,0.956-1.042,1.661c-0.183,0.705-0.274,1.605-0.274,2.703v9.469
				c0,1.72,0.262,2.973,0.782,3.76c0.521,0.786,1.441,1.18,2.759,1.18c1.298,0,2.167-0.397,2.606-1.194
				c0.44-0.795,0.659-2.008,0.659-3.637v-1.454h1.977v1.317c0,2.124-0.394,3.762-1.179,4.915c-0.787,1.152-2.15,1.728-4.089,1.728
				C288.987,553.587,287.529,552.975,286.697,551.748z"/>
			<path fill="#02726C" d="M299.829,552.09c-0.624-0.977-0.934-2.48-0.934-4.515v-4.39c0-2.032,0.312-3.536,0.934-4.515
				c0.62-0.978,1.718-1.469,3.292-1.469c1.573,0,2.668,0.489,3.292,1.469c0.623,0.978,0.935,2.481,0.935,4.515v4.39
				c0,2.033-0.313,3.537-0.935,4.515c-0.624,0.979-1.719,1.47-3.292,1.47C301.547,553.56,300.45,553.069,299.829,552.09z
				 M304.588,551.527c0.322-0.348,0.526-0.822,0.62-1.427c0.091-0.602,0.137-1.408,0.137-2.415v-4.61
				c0-1.005-0.047-1.812-0.137-2.415c-0.094-0.604-0.298-1.079-0.62-1.427c-0.317-0.348-0.809-0.523-1.467-0.523
				s-1.149,0.175-1.467,0.523c-0.322,0.348-0.528,0.817-0.619,1.413c-0.091,0.594-0.136,1.404-0.136,2.429v4.61
				c0,1.024,0.045,1.836,0.136,2.43c0.091,0.595,0.297,1.064,0.619,1.412c0.319,0.348,0.809,0.524,1.467,0.524
				C303.779,552.051,304.271,551.875,304.588,551.527z"/>
			<path fill="#02726C" d="M310.118,537.448h2.004v1.648c0.529-0.585,1.119-1.048,1.77-1.385c0.649-0.339,1.331-0.509,2.045-0.509
				c0.785,0,1.393,0.292,1.813,0.877c0.422,0.586,0.629,1.418,0.629,2.496v12.735h-2.002v-12.296c0-0.805-0.125-1.381-0.371-1.729
				c-0.246-0.346-0.627-0.52-1.138-0.52c-0.438,0-0.897,0.131-1.374,0.396c-0.474,0.268-0.931,0.627-1.371,1.083v13.064h-2.004
				V537.448z"/>
			<path fill="#02726C" d="M322.852,552.612c-0.4-0.596-0.604-1.46-0.604-2.593v-11.252h-1.945v-1.32h1.945v-4.912h2.005v4.912
				h2.634v1.32h-2.634v11.06c0,0.803,0.091,1.358,0.275,1.659c0.181,0.302,0.559,0.454,1.125,0.454c0.347,0,0.732-0.045,1.152-0.137
				v1.536c-0.568,0.111-1.134,0.165-1.703,0.165C324.004,553.503,323.254,553.207,322.852,552.612z"/>
			<path fill="#02726C" d="M329.162,537.448h2.032v2.169c0.475-0.785,1.039-1.372,1.687-1.756c0.649-0.384,1.304-0.576,1.965-0.576
				c0.165,0,0.28,0.011,0.355,0.028v2.139c-0.328-0.108-0.658-0.165-0.987-0.165c-1.263,0-2.27,0.614-3.02,1.839v12.186h-2.032
				V537.448z"/>
			<path fill="#02726C" d="M337.728,552.09c-0.621-0.977-0.934-2.48-0.934-4.515v-4.39c0-2.032,0.313-3.536,0.934-4.515
				c0.623-0.978,1.719-1.469,3.294-1.469c1.574,0,2.67,0.489,3.293,1.469c0.621,0.978,0.933,2.481,0.933,4.515v4.39
				c0,2.033-0.312,3.537-0.933,4.515c-0.623,0.979-1.721,1.47-3.293,1.47C339.446,553.559,338.349,553.069,337.728,552.09z
				 M342.49,551.527c0.317-0.348,0.523-0.822,0.615-1.427c0.09-0.602,0.137-1.408,0.137-2.415v-4.61
				c0-1.005-0.047-1.812-0.137-2.415c-0.092-0.604-0.298-1.079-0.615-1.427c-0.322-0.348-0.813-0.523-1.47-0.523
				c-0.662,0-1.149,0.175-1.471,0.523c-0.318,0.348-0.526,0.817-0.618,1.413c-0.092,0.594-0.136,1.404-0.136,2.429v4.61
				c0,1.024,0.044,1.836,0.136,2.43c0.091,0.595,0.3,1.064,0.618,1.412c0.321,0.348,0.809,0.524,1.471,0.524
				C341.681,552.051,342.169,551.875,342.49,551.527z"/>
			<path fill="#02726C" d="M348.293,531.081h2.003v22.23h-2.003V531.081z"/>
		</g>
		<g>
			<g>
				<g>
					<g>
						<path fill="#02726C" d="M304.299,397.729c-25.221,0-45.74,20.521-45.74,45.741c0,25.22,20.519,45.739,45.74,45.739
							c25.221,0,45.739-20.52,45.739-45.739C350.038,418.25,329.52,397.729,304.299,397.729z M304.299,485.397
							c-23.121,0-41.928-18.808-41.928-41.927c0-23.121,18.807-41.928,41.928-41.928c23.118,0,41.927,18.807,41.927,41.928
							C346.226,466.59,327.417,485.397,304.299,485.397z"/>
						<path fill="#02726C" d="M336.697,434.893h-5.158c-0.504-1.607-1.146-3.155-1.912-4.623l3.651-3.65
							c0.722-0.723,1.115-1.676,1.115-2.691c0-1.018-0.394-1.974-1.115-2.692l-6.747-6.747c-0.72-0.72-1.675-1.117-2.691-1.117
							c-1.016,0-1.972,0.397-2.69,1.117l-3.653,3.651c-1.467-0.767-3.015-1.408-4.622-1.91v-5.159c0-2.102-1.712-3.811-3.813-3.811
							h-9.528c-2.103,0-3.811,1.709-3.811,3.811v5.159c-1.608,0.502-3.156,1.144-4.624,1.912l-3.651-3.653
							c-0.722-0.72-1.676-1.117-2.692-1.117c-1.017,0-1.972,0.397-2.692,1.117l-6.747,6.747c-0.719,0.721-1.115,1.675-1.115,2.692
							c0,1.016,0.397,1.971,1.115,2.691l3.653,3.65c-0.769,1.47-1.41,3.018-1.913,4.623h-5.157c-2.102,0-3.812,1.713-3.812,3.814
							v9.527c0,2.103,1.709,3.813,3.812,3.813h5.157c0.502,1.608,1.144,3.156,1.913,4.623l-3.653,3.652
							c-0.719,0.722-1.115,1.675-1.115,2.691c0,1.019,0.397,1.973,1.115,2.69l6.747,6.747c0.72,0.72,1.675,1.117,2.692,1.117
							c1.016,0,1.974-0.397,2.692-1.117l3.651-3.65c1.47,0.767,3.017,1.407,4.624,1.909v5.159c0,2.103,1.708,3.811,3.811,3.811
							h9.528c2.105,0,3.813-1.708,3.813-3.811v-5.159c1.61-0.502,3.157-1.143,4.625-1.91l3.652,3.651
							c0.722,0.72,1.675,1.117,2.689,1.117c1.018,0,1.973-0.397,2.691-1.117l6.748-6.747c0.72-0.719,1.115-1.673,1.115-2.69
							c0-1.017-0.396-1.972-1.115-2.691l-3.649-3.652c0.766-1.468,1.407-3.016,1.908-4.623h5.158c2.103,0,3.812-1.712,3.812-3.813
							v-9.527C340.507,436.603,338.798,434.893,336.697,434.893z M336.697,448.234h-6.596c-0.868,0-1.628,0.588-1.846,1.43
							c-0.584,2.269-1.471,4.409-2.632,6.362c-0.446,0.75-0.325,1.707,0.29,2.323l4.671,4.661l-6.735,6.746l-4.672-4.669
							c-0.618-0.617-1.573-0.736-2.323-0.29c-1.952,1.161-4.093,2.048-6.363,2.633c-0.841,0.217-1.43,0.976-1.43,1.846v6.594h-9.528
							v-6.594c0-0.87-0.587-1.629-1.429-1.846c-2.269-0.585-4.408-1.473-6.364-2.633c-0.302-0.18-0.638-0.268-0.975-0.268
							c-0.491,0-0.979,0.19-1.348,0.559l-4.66,4.669l-6.746-6.737l4.671-4.671c0.616-0.615,0.736-1.572,0.289-2.322
							c-1.16-1.954-2.046-4.095-2.632-6.362c-0.217-0.842-0.976-1.431-1.845-1.431H271.9v-9.527h6.594
							c0.871,0,1.629-0.589,1.846-1.431c0.585-2.268,1.47-4.407,2.633-6.361c0.445-0.75,0.326-1.706-0.291-2.324l-4.67-4.661
							l6.739-6.746l4.669,4.67c0.617,0.617,1.573,0.736,2.322,0.289c1.956-1.16,4.096-2.046,6.363-2.632
							c0.842-0.218,1.43-0.975,1.43-1.846v-6.595h9.529v6.593c0,0.873,0.589,1.63,1.43,1.848c2.27,0.585,4.41,1.471,6.363,2.632
							c0.749,0.445,1.704,0.327,2.322-0.291l4.66-4.669l6.748,6.739l-4.67,4.669c-0.617,0.615-0.736,1.573-0.29,2.322
							c1.162,1.956,2.048,4.096,2.631,6.362c0.219,0.842,0.979,1.432,1.845,1.432h6.597v9.527H336.697z"/>
						<path fill="#02726C" d="M321.753,453.47l-7.623-6.669l-2.509,2.869l3.804,3.331h-11.126c-5.257,0-9.529-4.273-9.529-9.529
							h-3.812c0,7.355,5.985,13.34,13.341,13.34h11.125l-3.805,3.331l2.51,2.868l7.622-6.669c0.414-0.364,0.653-0.885,0.653-1.436
							C322.404,454.356,322.165,453.833,321.753,453.47z"/>
						<path fill="#02726C" d="M296.976,437.272l-3.805-3.332h11.127c5.254,0,9.526,4.274,9.526,9.53h3.812
							c0-7.356-5.98-13.341-13.338-13.341h-11.127l3.805-3.332l-2.509-2.868l-7.623,6.67c-0.415,0.364-0.652,0.884-0.652,1.435
							c0,0.55,0.238,1.072,0.652,1.433l7.623,6.67L296.976,437.272z"/>
					</g>
				</g>
			</g>
		</g>
	</g>
	<g>
		<g>
			<path fill="#02726C" d="M434.729,385.522h7.802v1.569h-5.754v8.094h4.688v1.491h-4.688v8.893h5.805v1.518h-7.853V385.522z"/>
			<path fill="#02726C" d="M443.94,391.697h1.972l2.503,13.153l2.476-13.153h1.89l-3.223,15.388h-2.288L443.94,391.697z"/>
			<path fill="#02726C" d="M455.178,406.342c-0.568-0.655-0.853-1.474-0.853-2.448c0-1.017,0.193-1.844,0.583-2.491
				c0.392-0.647,1.004-1.229,1.838-1.743c0.834-0.516,2.094-1.154,3.78-1.918v-1.093c0-0.956-0.057-1.703-0.174-2.234
				c-0.114-0.532-0.31-0.914-0.585-1.143c-0.274-0.232-0.662-0.349-1.158-0.349c-1.438,0-2.156,0.88-2.156,2.636v0.559l-1.917-0.053
				l0.024-0.453c0.055-1.455,0.428-2.509,1.118-3.167c0.693-0.659,1.705-0.984,3.036-0.984c1.348,0,2.313,0.406,2.889,1.222
				c0.576,0.82,0.866,2.105,0.866,3.863v7.481c0,0.495,0.012,1.063,0.038,1.703c0.027,0.64,0.057,1.091,0.096,1.357h-1.73
				l-0.293-2.128c-0.233,0.675-0.625,1.237-1.187,1.689c-0.561,0.453-1.221,0.678-1.983,0.678
				C456.487,407.326,455.742,406.997,455.178,406.342z M459.475,405.131c0.437-0.366,0.787-0.795,1.054-1.292v-4.792
				c-1.243,0.655-2.121,1.149-2.637,1.478c-0.515,0.326-0.915,0.714-1.196,1.155c-0.284,0.445-0.426,1.024-0.426,1.731
				c0,0.764,0.163,1.333,0.494,1.704c0.325,0.374,0.746,0.56,1.262,0.56C458.557,405.676,459.039,405.494,459.475,405.131z"/>
			<path fill="#02726C" d="M465.586,385.522h1.941v21.563h-1.941V385.522z"/>
			<path fill="#02726C" d="M471.178,406.475c-0.409-0.567-0.615-1.374-0.615-2.423v-12.354h1.972v11.927
				c0,0.782,0.119,1.338,0.359,1.665c0.24,0.328,0.607,0.493,1.104,0.493c0.445,0,0.901-0.137,1.372-0.414
				c0.471-0.274,0.921-0.644,1.345-1.105v-12.565h1.943v15.388h-1.943v-1.701c-0.516,0.604-1.092,1.075-1.729,1.424
				c-0.64,0.346-1.313,0.519-2.024,0.519C472.178,407.326,471.584,407.042,471.178,406.475z"/>
			<path fill="#02726C" d="M482.093,406.342c-0.569-0.655-0.853-1.474-0.853-2.448c0-1.017,0.195-1.844,0.584-2.491
				c0.39-0.647,1.002-1.229,1.837-1.743c0.834-0.516,2.096-1.154,3.781-1.918v-1.093c0-0.956-0.057-1.703-0.174-2.234
				c-0.116-0.532-0.311-0.914-0.586-1.143c-0.274-0.232-0.661-0.349-1.157-0.349c-1.438,0-2.157,0.88-2.157,2.636v0.559
				l-1.917-0.053l0.025-0.453c0.054-1.455,0.426-2.509,1.118-3.167c0.694-0.659,1.703-0.984,3.036-0.984
				c1.349,0,2.311,0.406,2.888,1.222c0.575,0.82,0.865,2.105,0.865,3.863v7.481c0,0.495,0.015,1.063,0.04,1.703
				c0.028,0.64,0.058,1.091,0.094,1.357h-1.729l-0.294-2.128c-0.231,0.675-0.625,1.237-1.185,1.689
				c-0.56,0.453-1.222,0.678-1.982,0.678C483.406,407.326,482.659,406.997,482.093,406.342z M486.392,405.131
				c0.435-0.366,0.784-0.795,1.051-1.292v-4.792c-1.243,0.655-2.121,1.149-2.634,1.478c-0.517,0.326-0.917,0.714-1.196,1.155
				c-0.286,0.445-0.427,1.024-0.427,1.731c0,0.764,0.164,1.333,0.492,1.704c0.328,0.374,0.748,0.56,1.263,0.56
				C485.474,405.676,485.956,405.494,486.392,405.131z"/>
			<path fill="#02726C" d="M493.458,406.566c-0.604-0.506-1.007-1.188-1.21-2.049c-0.204-0.86-0.307-1.947-0.307-3.263v-3.594
				c0-1.489,0.119-2.68,0.358-3.565c0.241-0.888,0.657-1.548,1.25-1.985c0.597-0.434,1.435-0.65,2.519-0.65
				c1.508,0,2.537,0.411,3.09,1.237c0.549,0.824,0.824,2.054,0.824,3.687v0.745h-1.811v-0.745c0-0.906-0.067-1.606-0.2-2.104
				c-0.132-0.496-0.35-0.848-0.652-1.053c-0.301-0.205-0.719-0.306-1.251-0.306c-0.604,0-1.063,0.144-1.371,0.427
				c-0.312,0.283-0.524,0.731-0.64,1.345c-0.114,0.611-0.173,1.495-0.173,2.648v4.313c0,1.065,0.063,1.899,0.185,2.502
				c0.124,0.605,0.348,1.039,0.668,1.305c0.32,0.268,0.771,0.4,1.357,0.4c0.604,0,1.052-0.127,1.345-0.386
				c0.291-0.258,0.486-0.642,0.586-1.158c0.097-0.517,0.146-1.231,0.146-2.156v-0.853h1.812v0.744c0,1.156-0.104,2.109-0.309,2.864
				c-0.203,0.753-0.589,1.343-1.157,1.771c-0.569,0.425-1.384,0.638-2.449,0.638C494.932,407.326,494.062,407.073,493.458,406.566z"
				/>
			<path fill="#02726C" d="M502.805,386.934h1.942v2.634h-1.942V386.934z M502.805,391.697h1.942v15.388h-1.942V391.697z"/>
			<path fill="#02726C" d="M508.635,405.902c-0.604-0.95-0.904-2.41-0.904-4.38v-4.259c0-1.971,0.3-3.432,0.904-4.382
				c0.604-0.948,1.669-1.422,3.193-1.422c1.528,0,2.593,0.474,3.196,1.422c0.602,0.95,0.904,2.412,0.904,4.382v4.259
				c0,1.971-0.303,3.43-0.904,4.38c-0.604,0.95-1.668,1.424-3.196,1.424C510.303,407.326,509.238,406.853,508.635,405.902z
				 M513.254,405.357c0.31-0.339,0.509-0.8,0.599-1.387c0.086-0.583,0.133-1.366,0.133-2.34v-4.474c0-0.976-0.047-1.758-0.133-2.343
				c-0.09-0.585-0.289-1.047-0.599-1.384c-0.311-0.337-0.786-0.506-1.426-0.506c-0.639,0-1.113,0.169-1.424,0.506
				c-0.312,0.337-0.51,0.795-0.6,1.372c-0.089,0.576-0.131,1.361-0.131,2.355v4.474c0,0.99,0.042,1.777,0.131,2.356
				c0.09,0.574,0.288,1.031,0.6,1.371c0.311,0.335,0.785,0.506,1.424,0.506C512.469,405.865,512.943,405.692,513.254,405.357z
				 M513.027,385.202h1.943l-2.609,5.218h-1.011L513.027,385.202z"/>
			<path fill="#02726C" d="M518.619,391.697h1.943v1.599c0.516-0.57,1.087-1.018,1.717-1.346c0.63-0.326,1.292-0.49,1.983-0.49
				c0.763,0,1.349,0.281,1.758,0.851c0.407,0.568,0.612,1.375,0.612,2.422v12.354h-1.944v-11.928c0-0.778-0.119-1.339-0.358-1.674
				c-0.239-0.336-0.608-0.508-1.107-0.508c-0.424,0-0.869,0.128-1.329,0.385c-0.462,0.258-0.905,0.61-1.331,1.053v12.672h-1.943
				V391.697L518.619,391.697z"/>
			<path fill="#02726C" d="M442.011,432.46c-0.577-0.996-0.866-2.645-0.866-4.953v-2.852c0-2.179,0.258-3.821,0.772-4.923
				c0.515-1.099,1.465-1.651,2.849-1.651c0.994,0,1.899,0.445,2.716,1.33v-7.267h1.944v21.564h-1.944v-1.092
				c-0.816,0.89-1.693,1.331-2.635,1.331C443.533,433.95,442.59,433.453,442.011,432.46z M447.481,431.395V420.69
				c-0.816-0.727-1.579-1.091-2.288-1.091c-0.818,0-1.372,0.346-1.665,1.04c-0.293,0.689-0.438,1.817-0.438,3.378v3.648
				c0,1.668,0.145,2.875,0.438,3.621c0.293,0.747,0.866,1.119,1.719,1.119C445.992,432.406,446.736,432.069,447.481,431.395z"/>
			<path fill="#02726C" d="M453.899,433.364c-0.606-0.391-1.048-1.021-1.334-1.89c-0.282-0.87-0.425-2.049-0.425-3.541v-3.888
				c0-1.509,0.146-2.693,0.44-3.554c0.293-0.86,0.745-1.479,1.358-1.853c0.611-0.371,1.404-0.559,2.381-0.559
				c1.065,0,1.887,0.227,2.464,0.681c0.576,0.451,0.975,1.13,1.198,2.035c0.222,0.904,0.332,2.122,0.332,3.646l-0.027,1.387h-6.203
				v2.29c0,1.08,0.063,1.932,0.186,2.556c0.124,0.619,0.348,1.076,0.667,1.371c0.321,0.292,0.772,0.438,1.359,0.438
				c0.676,0,1.193-0.213,1.558-0.64c0.362-0.424,0.545-1.197,0.545-2.314v-1.065h1.889v0.853c0,1.489-0.309,2.632-0.93,3.434
				c-0.623,0.798-1.642,1.198-3.062,1.198C455.3,433.95,454.501,433.755,453.899,433.364z M458.397,424.713v-1.278
				c0-0.925-0.049-1.651-0.146-2.183c-0.1-0.532-0.298-0.948-0.598-1.25c-0.304-0.304-0.756-0.453-1.358-0.453
				c-0.553,0-0.986,0.119-1.307,0.358c-0.319,0.239-0.551,0.655-0.69,1.252c-0.144,0.595-0.214,1.433-0.214,2.518v1.037
				L458.397,424.713L458.397,424.713z"/>
			<path fill="#02726C" d="M468.78,412.146h4.87c1.936,0,3.31,0.466,4.126,1.396c0.817,0.935,1.228,2.297,1.228,4.09
				c0,1.366-0.225,2.492-0.668,3.379c-0.444,0.888-1.217,1.446-2.317,1.679l3.304,11.021h-1.973l-3.168-10.596H470.8v10.596h-2.024
				v-21.563H468.78z M473.546,421.622c1.296,0,2.199-0.319,2.716-0.959c0.516-0.637,0.772-1.65,0.772-3.032
				c0-1.402-0.243-2.417-0.732-3.037c-0.487-0.621-1.387-0.931-2.702-0.931h-2.795v7.96L473.546,421.622L473.546,421.622z"/>
			<path fill="#02726C" d="M482.226,413.557h1.941v2.635h-1.941V413.557z M482.226,418.321h1.941v15.39h-1.941V418.321z"/>
			<path fill="#02726C" d="M488.906,433.364c-0.604-0.391-1.049-1.021-1.331-1.89c-0.282-0.87-0.425-2.049-0.425-3.541v-3.888
				c0-1.509,0.147-2.693,0.438-3.554c0.292-0.86,0.745-1.479,1.357-1.853c0.616-0.371,1.407-0.559,2.385-0.559
				c1.064,0,1.884,0.227,2.462,0.681c0.575,0.451,0.975,1.13,1.199,2.035c0.222,0.904,0.33,2.122,0.33,3.646l-0.025,1.387h-6.203
				v2.29c0,1.08,0.061,1.932,0.185,2.556c0.124,0.619,0.347,1.076,0.665,1.371c0.321,0.292,0.773,0.438,1.358,0.438
				c0.676,0,1.194-0.213,1.56-0.64c0.363-0.424,0.543-1.197,0.543-2.314v-1.065h1.893v0.853c0,1.489-0.313,2.632-0.931,3.434
				c-0.624,0.798-1.645,1.198-3.064,1.198C490.309,433.95,489.511,433.755,488.906,433.364z M493.404,424.713v-1.278
				c0-0.925-0.047-1.651-0.145-2.183c-0.098-0.532-0.298-0.948-0.6-1.25c-0.303-0.304-0.754-0.453-1.358-0.453
				c-0.548,0-0.984,0.119-1.305,0.358c-0.319,0.239-0.55,0.655-0.69,1.252c-0.143,0.595-0.213,1.433-0.213,2.518v1.037
				L493.404,424.713L493.404,424.713z"/>
			<path fill="#02726C" d="M498.559,432.779c-0.737-0.781-1.159-1.847-1.267-3.196l1.625-0.507c0.106,1.174,0.374,2.034,0.812,2.584
				c0.434,0.548,1.043,0.824,1.822,0.824c0.676,0,1.204-0.194,1.586-0.584c0.379-0.391,0.571-0.924,0.571-1.598
				c0-0.992-0.623-2.022-1.864-3.087l-2.103-1.813c-0.711-0.583-1.239-1.173-1.586-1.757c-0.343-0.586-0.517-1.259-0.517-2.023
				c0-1.118,0.326-1.986,0.984-2.609c0.655-0.619,1.553-0.931,2.688-0.931s2.011,0.365,2.624,1.092
				c0.611,0.727,0.953,1.713,1.024,2.954l-1.386,0.454c-0.105-2.024-0.833-3.034-2.182-3.034c-0.604,0-1.086,0.161-1.451,0.491
				c-0.364,0.328-0.537,0.786-0.521,1.37c0,0.481,0.091,0.902,0.27,1.267c0.175,0.363,0.504,0.751,0.982,1.158l2.183,1.944
				c0.816,0.727,1.445,1.414,1.891,2.062c0.444,0.65,0.666,1.451,0.666,2.411c0,1.172-0.354,2.082-1.066,2.727
				c-0.71,0.65-1.669,0.976-2.874,0.976C500.265,433.954,499.294,433.559,498.559,432.779z"/>
			<path fill="#02726C" d="M507.955,438.17c-0.913-0.397-1.369-1.072-1.369-2.012c0-0.744,0.243-1.428,0.73-2.05
				c0.486-0.62,1.085-1.117,1.796-1.49c-0.462-0.124-0.86-0.311-1.198-0.56c-0.336-0.248-0.504-0.507-0.504-0.772
				c0-0.496,0.168-1.001,0.504-1.517c0.338-0.515,0.781-1.056,1.331-1.624c-0.674-0.497-1.168-1.131-1.478-1.903
				c-0.31-0.774-0.465-1.7-0.465-2.782c0-1.563,0.364-2.85,1.091-3.861c0.728-1.013,1.801-1.519,3.223-1.519
				c1.561,0,2.661,0.64,3.301,1.919c0.159-0.268,0.435-0.573,0.825-0.919c0.39-0.347,0.806-0.617,1.252-0.813l0.399-0.131
				l0.532,1.357c-0.426,0.069-0.901,0.248-1.425,0.532c-0.525,0.28-0.894,0.55-1.106,0.798c0.124,0.335,0.234,0.775,0.333,1.316
				c0.098,0.542,0.147,1,0.147,1.374c0,1.648-0.338,2.959-1.015,3.926c-0.674,0.968-1.749,1.451-3.222,1.451
				c-0.265,0-0.546-0.021-0.837-0.068c-0.293-0.044-0.536-0.101-0.733-0.173c-0.071,0.106-0.199,0.297-0.385,0.572
				s-0.342,0.537-0.468,0.787c-0.122,0.247-0.184,0.453-0.184,0.613c0,0.264,0.425,0.47,1.276,0.611
				c0.142,0.053,0.434,0.112,0.878,0.174c0.445,0.062,0.78,0.111,1.012,0.145c0.302,0.036,0.487,0.064,0.561,0.079
				c1.275,0.213,2.24,0.61,2.888,1.187s0.973,1.371,0.973,2.381c0,1.227-0.431,2.127-1.293,2.702
				c-0.86,0.575-2.025,0.868-3.498,0.868C510.162,438.77,508.868,438.569,507.955,438.17z M514.199,436.704
				c0.584-0.326,0.877-0.82,0.877-1.475c0-0.552-0.199-0.987-0.598-1.306c-0.4-0.318-1.168-0.579-2.304-0.774l-1.971-0.266
				c-1.314,0.816-1.97,1.694-1.97,2.635c0,0.589,0.273,1.014,0.824,1.277c0.55,0.268,1.466,0.4,2.743,0.4
				C512.815,437.198,513.612,437.033,514.199,436.704z M513.666,426.362c0.338-0.745,0.506-1.713,0.506-2.902
				c0-2.663-0.843-3.994-2.527-3.994c-0.977,0-1.649,0.391-2.024,1.174c-0.371,0.777-0.559,1.721-0.559,2.821
				c0,2.681,0.86,4.021,2.583,4.021C512.656,427.48,513.329,427.107,513.666,426.362z"/>
			<path fill="#02726C" d="M519.525,432.524c-0.604-0.948-0.906-2.408-0.906-4.378v-4.259c0-1.972,0.302-3.432,0.906-4.38
				c0.602-0.95,1.667-1.425,3.193-1.425s2.593,0.475,3.196,1.425c0.603,0.948,0.904,2.409,0.904,4.38v4.259
				c0,1.971-0.302,3.43-0.904,4.378c-0.604,0.949-1.67,1.425-3.196,1.425S520.127,433.474,519.525,432.524z M524.144,431.979
				c0.31-0.335,0.509-0.797,0.598-1.384c0.088-0.584,0.135-1.366,0.135-2.343v-4.471c0-0.977-0.047-1.758-0.135-2.343
				c-0.089-0.585-0.288-1.047-0.598-1.387c-0.313-0.334-0.786-0.503-1.425-0.503s-1.115,0.169-1.425,0.503
				c-0.31,0.34-0.512,0.795-0.598,1.375c-0.091,0.574-0.134,1.361-0.134,2.355v4.471c0,0.994,0.043,1.78,0.134,2.357
				c0.086,0.577,0.288,1.035,0.598,1.371c0.31,0.337,0.783,0.506,1.425,0.506C523.358,432.487,523.831,432.316,524.144,431.979z"/>
		</g>
		<g>
			<g>
				<g>
					<path fill="#02726C" d="M485.405,307.191h-2.854v-7.142h2.854v-5.711v-1.43v-2.269l-13.911-7.727h-3.596l-13.91,7.727v2.269
						v1.43v5.711h2.858v7.142h-2.858v8.566h31.417V307.191L485.405,307.191z M468.639,285.768h2.115l10.281,5.712h-22.678
						L468.639,285.768z M456.847,294.338h25.702v2.855h-25.702V294.338z M479.693,300.049v7.142h-2.855v-7.142H479.693z
						 M473.981,300.049v7.142h-2.857v-7.142H473.981z M468.27,300.049v7.142h-2.857v-7.142H468.27z M462.557,300.049v7.142h-2.854
						v-7.142H462.557z M482.551,312.902h-25.703v-2.856h25.703V312.902z"/>
					<polygon fill="#02726C" points="498.258,322.898 501.114,322.898 501.114,294.338 488.26,294.338 488.26,297.194 
						498.258,297.194 					"/>
					<path fill="#02726C" d="M498.258,368.595h-45.696v-11.423h-11.424v-59.978h9.996v-2.855h-12.853v64.852l12.263,12.261h50.571
						v-11.423h-2.856L498.258,368.595L498.258,368.595z M449.706,366.574l-6.553-6.547h6.553V366.574z"/>
					<path fill="#02726C" d="M489.689,322.898c-10.236,0-18.563,8.328-18.563,18.564c0,10.234,8.326,18.564,18.563,18.564
						s18.564-8.33,18.564-18.564C508.254,331.227,499.926,322.898,489.689,322.898z M489.689,357.172
						c-8.66,0-15.708-7.049-15.708-15.709c0-8.661,7.048-15.708,15.708-15.708c8.663,0,15.709,7.047,15.709,15.708
						C505.398,350.123,498.35,357.172,489.689,357.172z"/>
					<path fill="#02726C" d="M486.834,334.322h5.714c1.573,0,2.854,1.282,2.854,2.855h2.856c0-3.15-2.564-5.713-5.711-5.713h-1.429
						v-2.856h-2.856v2.856h-1.428c-3.15,0-5.712,2.563-5.712,5.713s2.562,5.714,5.712,5.714h5.713c1.574,0,2.856,1.279,2.856,2.857
						c0,1.572-1.282,2.855-2.856,2.855h-5.713c-1.574,0-2.856-1.283-2.856-2.855h-2.855c0,3.148,2.562,5.71,5.712,5.71h1.428v2.855
						h2.856v-2.855h1.429c3.146,0,5.711-2.562,5.711-5.71c0-3.152-2.564-5.714-5.711-5.714h-5.714c-1.576,0-2.856-1.281-2.856-2.857
						C483.978,335.604,485.258,334.322,486.834,334.322z"/>
					<polygon fill="#02726C" points="522.207,330.037 519.148,334.322 509.681,334.322 509.681,337.178 517.107,337.178 
						515.659,339.204 517.982,340.863 525.717,330.037 517.982,319.212 515.659,320.872 517.107,322.898 503.97,322.898 
						503.97,325.755 519.148,325.755 					"/>
					<polygon fill="#02726C" points="526.819,348.604 526.819,345.748 515.109,345.748 516.556,343.719 514.23,342.062 
						506.499,352.887 514.23,363.713 516.556,362.054 515.109,360.027 526.819,360.027 526.819,357.172 513.068,357.172 
						510.008,352.887 513.068,348.604 					"/>
					<polygon fill="#02726C" points="469.697,348.604 469.697,345.748 462.273,345.748 463.72,343.719 461.395,342.062 
						453.663,352.887 461.395,363.713 463.72,362.054 462.273,360.027 476.838,360.027 476.838,357.172 460.231,357.172 
						457.171,352.887 460.231,348.604 					"/>
					<polygon fill="#02726C" points="462.823,339.204 465.146,340.863 472.878,330.037 465.146,319.212 462.823,320.872 
						464.272,322.898 452.562,322.898 452.562,325.755 466.313,325.755 469.37,330.037 466.313,334.322 452.562,334.322 
						452.562,337.178 464.272,337.178 					"/>
				</g>
			</g>
		</g>
	</g>
	<g>
		<path fill="#01A89E" d="M308.905,23.112c13.676-0.292,27.601,1.685,41.016,4.074c32.64,5.814,64.305,17.04,93.268,33.17
			c61.309,34.142,105.36,90.613,130.53,155.528c0.828,2.138,4.307,1.209,3.469-0.957c-18.653-48.109-47.113-91.984-86.399-125.759
			c-29.149-25.057-63.489-43.635-99.997-55.474c-25.862-8.388-54.477-14.763-81.884-14.179
			C306.589,19.564,306.585,23.161,308.905,23.112L308.905,23.112z"/>
	</g>
	<g>
		<path fill="#01A89E" d="M296.916,19.515c-13.498-0.287-27.236,1.648-40.49,3.941c-31.91,5.52-62.937,16.239-91.477,31.527
			C100.764,89.363,54.737,147.607,28.636,214.928c-0.84,2.166,2.639,3.094,3.468,0.957c19.083-49.216,48.708-93.819,89.551-127.591
			c29.748-24.598,64.783-42.456,101.725-53.411c23.419-6.945,48.936-12.293,73.538-11.77
			C299.236,23.161,299.231,19.564,296.916,19.515L296.916,19.515z"/>
	</g>
	<g>
		<path fill="#01A89E" d="M577.342,227.36c5.175,16.362,7.495,33.938,8.971,50.959c3.479,40.121-0.678,80.876-12.982,119.252
			c-17.646,55.049-53.072,102.029-98.023,137.869c-1.815,1.445,0.749,3.974,2.541,2.543c43.687-34.83,77.922-79.84,96.663-132.674
			c13.617-38.396,18.447-79.727,15.899-120.299c-1.226-19.521-3.673-39.865-9.601-58.607
			C580.114,224.2,576.641,225.142,577.342,227.36L577.342,227.36z"/>
	</g>
	<g>
		<path fill="#01A89E" d="M25.999,226.404c-5.087,16.083-7.39,33.338-8.938,50.063c-3.621,39.128,0.012,78.993,11.263,116.665
			c17.272,57.836,53.688,107.423,100.635,144.852c1.794,1.431,4.357-1.098,2.543-2.543c-44.729-35.661-79.499-82.003-97.584-136.516
			c-12.739-38.397-16.754-79.427-13.502-119.669c1.4-17.319,3.788-35.252,9.051-51.896C30.167,225.142,26.695,224.2,25.999,226.404
			L25.999,226.404z"/>
	</g>
	<g>
		<path fill="#01A89E" d="M141.051,545.69c16.985,12.782,37.219,22.057,56.903,29.702c45.332,17.606,95.162,24.038,143.394,17.392
			c45.202-6.229,87.828-23.317,126.379-47.481c1.96-1.228,0.157-4.341-1.816-3.105c-55.539,34.813-119.29,53.764-185.034,48.646
			c-40.825-3.178-81.158-15.55-117.047-35.211c-7.18-3.932-14.407-8.113-20.961-13.046
			C141.012,541.188,139.223,544.314,141.051,545.69L141.051,545.69z"/>
	</g>
	<g>
		<path fill="#01A89E" d="M579.016,219.16c2.628-6.483,5.241-13.002,7.868-19.482c1.023-2.528-2.902-4.145-3.925-1.619
			c-2.021,4.985-3.896,10.316-5.978,15.162c-0.72,3.725-1.105,2.424-4.059,1.313c-4.751-1.843-9.68-4.102-14.478-6.045
			c-2.525-1.024-4.096,2.927-1.57,3.95c6.459,2.619,12.927,5.254,19.387,7.874C577.325,220.745,578.58,220.226,579.016,219.16z"/>
	</g>
	<g>
		<path fill="#01A89E" d="M473.749,541.014c6.974,0.555,13.978,1.083,20.948,1.638c2.72,0.218,3.078-4.016,0.363-4.23
			c-5.362-0.426-11.013-0.609-16.261-1.136c-3.77,0.437-2.646-0.324-2.473-3.474c0.328-5.086,0.998-10.467,1.407-15.625
			c0.218-2.719-4.022-3.024-4.238-0.309c-0.554,6.946-1.121,13.908-1.674,20.855C471.729,539.881,472.603,540.921,473.749,541.014z"
			/>
	</g>
	<g>
		<path fill="#01A89E" d="M136.251,542.518c1.988,6.708,4.012,13.434,5.998,20.138c0.774,2.616,4.855,1.43,4.079-1.183
			c-1.53-5.157-3.388-10.495-4.783-15.581c-1.763-3.361-0.649-2.585,2.352-3.557c4.865-1.521,10.128-2.83,15.088-4.303
			c2.614-0.774,1.376-4.841-1.235-4.064c-6.682,1.978-13.382,3.95-20.064,5.93C136.581,540.226,135.927,541.415,136.251,542.518z"/>
	</g>
	<g>
		<path fill="#01A89E" d="M27.709,221.235c-5.93,3.712-11.869,7.462-17.796,11.171c-2.313,1.447-0.077,5.059,2.231,3.613
			c4.56-2.854,9.206-6.074,13.732-8.781c2.766-2.598,2.319-1.317,4.057,1.315c2.77,4.279,5.438,9,8.186,13.386
			c1.446,2.31,5.033,0.028,3.586-2.279c-3.696-5.907-7.39-11.836-11.087-17.743C30.006,220.938,28.685,220.625,27.709,221.235z"/>
	</g>
	<g>
		<path fill="#01A89E" d="M302.573,19.979c-4.987-4.904-10.015-9.81-15-14.712c-1.944-1.912-4.939,1.101-2.996,3.01
			c3.835,3.772,8.047,7.542,11.731,11.316c3.17,2.086,1.82,1.948-0.335,4.251c-3.52,3.688-7.491,7.382-11.118,11.071
			c-1.911,1.943,1.141,4.903,3.05,2.959c4.886-4.969,9.795-9.938,14.679-14.908C303.396,22.145,303.393,20.788,302.573,19.979z"/>
	</g>
</g>
</svg>
